<svg width="11" height="12" viewBox="0 0 11 12" fill="none" xmlns="http://www.w3.org/2000/svg">
<path d="M4.5 0C4.23828 0 3.9707 0.091797 3.78125 0.28125C3.5918 0.470703 3.5 0.738281 3.5 1V1.5H0V2.5H0.546875L1.5 11.5469L1.54688 12H9.45312L9.5 11.5469L10.4531 2.5H11V1.5H7.5V1C7.5 0.738281 7.4082 0.470703 7.21875 0.28125C7.0293 0.091797 6.76172 0 6.5 0H4.5ZM4.5 1H6.5V1.5H4.5V1ZM1.5625 2.5H9.4375L8.54688 11H2.45312L1.5625 2.5ZM3.5 4V9.5H4.5V4H3.5ZM5 4V9.5H6V4H5ZM6.5 4V9.5H7.5V4H6.5Z" fill="#2B2A29"/>
</svg>
