<svg width="30" height="31" viewBox="0 0 30 31" fill="none" xmlns="http://www.w3.org/2000/svg">
<path d="M0 0.71875V24.9062C0 27.8706 2.41069 30.2812 5.375 30.2812C8.33931 30.2812 10.75 27.8706 10.75 24.9062V0.71875H0ZM2.6875 3.40625H8.0625V8.78125H2.6875V3.40625ZM18.6786 4.00201L12.7682 9.91504V13.7127L18.676 7.80231L22.4789 11.6026L12.7656 21.3159V24.9062C12.7656 24.9815 12.7565 25.0515 12.7551 25.1267L26.2792 11.6052L18.6786 4.00201ZM2.6875 11.4688H8.0625V16.8438H2.6875V11.4688ZM2.6875 19.5312H8.0625V24.9062C8.0625 26.3884 6.85716 27.5938 5.375 27.5938C3.89284 27.5938 2.6875 26.3884 2.6875 24.9062V19.5312ZM21.2008 19.5312L18.5133 22.2188H26.875V27.5938H13.1383L10.6004 30.1317C10.544 30.1881 10.4771 30.2275 10.4193 30.2812H29.5625V19.5312H21.2008Z" fill="#2B2A29"/>
</svg>
