<svg width="34" height="33" viewBox="0 0 34 33" fill="none" xmlns="http://www.w3.org/2000/svg">
<path d="M11.7797 0V9.17234L3.32293 6.36668L0 16.2827L8.49487 19.103L2.91856 26.5808L11.3519 32.8104L16.8579 25.4259L22.065 33L30.7298 27.097L25.3322 19.2488L34 16.4606L30.7708 6.51251L23.7733 9.24525L22.273 0H11.7797ZM14.7715 2.98648H19.2812V13.3487L28.8398 10.2748L30.2229 14.5357L20.5881 17.636L26.56 26.3183L22.8444 28.8469L16.9546 20.2812L10.7307 28.634L7.11471 25.9625L13.3709 17.5718L3.79764 14.3958L5.21882 10.1464L14.7715 13.4392V2.98648Z" fill="#2B2A29"/>
</svg>
