<svg width="33" height="30" viewBox="0 0 33 30" fill="none" xmlns="http://www.w3.org/2000/svg">
<path d="M16.5 0L16.024 0.194301L8.40865 3.18653L7.61538 3.49741V11.8523L0.753606 14.7668L0 15.1166V25.1425L0.634615 25.5311L8.25 29.6891L8.84495 30L9.4399 29.728L16.5 26.2694L23.5601 29.728L24.155 30L24.75 29.6891L32.3654 25.5311L33 25.1425V15.1166L32.2464 14.7668L25.3846 11.8523V3.49741L24.5913 3.18653L16.976 0.194301L16.5 0ZM16.5 2.72021L20.6647 4.31347L16.5 5.90674L12.3353 4.31347L16.5 2.72021ZM10.1538 6.1399L15.2308 8.04404V14.1062L10.1538 11.8912V6.1399ZM22.8462 6.1399V11.8912L17.7692 14.1062V8.04404L22.8462 6.1399ZM8.88461 14.0674L13.4856 16.0492L8.88461 18.2642L4.28365 16.0104L8.88461 14.0674ZM24.1154 14.0674L28.7163 16.0104L24.1154 18.2642L19.5144 16.0492L20.9423 15.4275L24.1154 14.0674ZM2.53846 17.9145L7.61538 20.4016V26.5026L2.53846 23.7047V17.9145ZM30.4615 17.9145V23.7047L25.3846 26.5026V20.4016L30.4615 17.9145ZM15.2308 17.9922V24.0933L10.1538 26.5803V20.4016L15.2308 17.9922ZM17.7692 17.9922L22.8462 20.4016V26.5803L17.7692 24.0933V17.9922Z" fill="#2B2A29"/>
</svg>
