<svg width="18" height="18" viewBox="0 0 18 18" fill="none" xmlns="http://www.w3.org/2000/svg">
<path d="M4.86939 1.6875C4.57496 1.6875 4.28492 1.79297 4.04322 1.98633L4.00807 2.00391L3.99049 2.02148L2.23268 3.83203L2.25025 3.84961C1.70753 4.35059 1.54054 5.09985 1.77564 5.74805C1.77784 5.75244 1.77345 5.76123 1.77564 5.76562C2.25245 7.13013 3.47193 9.76465 5.85377 12.1465C8.24439 14.5371 10.9141 15.7083 12.2346 16.2246H12.2522C12.9356 16.4531 13.676 16.2905 14.2034 15.8379L15.9788 14.0625C16.4446 13.5967 16.4446 12.7881 15.9788 12.3223L13.6936 10.0371L13.676 10.002C13.2102 9.53613 12.384 9.53613 11.9182 10.002L10.7932 11.127C10.3867 10.9314 9.41773 10.4304 8.49049 9.54492C7.56983 8.66602 7.09962 7.65527 6.92603 7.25977L8.05103 6.13477C8.52345 5.66235 8.53224 4.87573 8.03346 4.41211L8.05103 4.39453L7.9983 4.3418L5.7483 2.02148L5.73072 2.00391L5.69557 1.98633C5.45387 1.79297 5.16383 1.6875 4.86939 1.6875ZM4.86939 2.8125C4.91114 2.8125 4.95289 2.83228 4.99244 2.86523L7.24244 5.16797L7.29518 5.2207C7.29078 5.21631 7.32813 5.27563 7.26002 5.34375L5.85377 6.75L5.5901 6.99609L5.71314 7.34766C5.71314 7.34766 6.35914 9.0769 7.71705 10.3711L7.8401 10.4766C9.14747 11.6697 10.6878 12.3223 10.6878 12.3223L11.0393 12.4805L12.7092 10.8105C12.8059 10.7139 12.7883 10.7139 12.885 10.8105L15.1878 13.1133C15.2844 13.21 15.2844 13.1748 15.1878 13.2715L13.4651 14.9941C13.2058 15.2161 12.9312 15.2622 12.6038 15.1523C11.3294 14.6514 8.85304 13.5637 6.64478 11.3555C4.41895 9.12964 3.2566 6.60498 2.83033 5.37891C2.74464 5.15039 2.80616 4.81201 3.00611 4.64062L3.04127 4.60547L4.74635 2.86523C4.7859 2.83228 4.82765 2.8125 4.86939 2.8125Z" fill="#2B2A29"/>
</svg>
