<svg width="22" height="29" viewBox="0 0 22 29" fill="none" xmlns="http://www.w3.org/2000/svg">
<path d="M11.6055 0.5C5.89384 0.5 0.25 4.30624 0.25 10.469C0.25 14.3874 2.45329 16.6147 3.78979 16.6147C4.34104 16.6147 4.65991 15.078 4.65991 14.6438C4.65991 14.1263 3.33936 13.0233 3.33936 10.8689C3.33936 6.39365 6.74615 3.22241 11.155 3.22241C14.9463 3.22241 17.7512 5.37526 17.7512 9.33301C17.7512 12.2884 16.5646 17.832 12.7239 17.832C11.3379 17.832 10.1531 16.8308 10.1531 15.3953C10.1531 13.2915 11.5 11.2538 11.5 9.08252C11.5 5.39702 6.39575 6.06566 6.39575 10.5195C6.39575 11.4544 6.51231 12.4892 6.92969 13.3408C6.16244 16.6472 4.75 21.9171 4.75 25.3247C4.75 26.3766 4.90036 27.4116 5.00049 28.4646C5.18949 28.6761 5.09588 28.6538 5.38501 28.5481C8.19076 24.7073 7.93046 23.6122 9.19946 18.5857C9.88459 19.8884 11.655 20.5896 13.0579 20.5896C18.9697 20.5896 21.625 14.8282 21.625 9.63403C21.625 4.10691 16.8491 0.5 11.6055 0.5Z" fill="#2B2A29"/>
</svg>
