<svg width="29" height="29" viewBox="0 0 29 29" fill="none" xmlns="http://www.w3.org/2000/svg">
<path d="M2.96875 0.40625C1.56738 0.40625 0.40625 1.56738 0.40625 2.96875V26.0312C0.40625 27.4326 1.56738 28.5938 2.96875 28.5938H26.0312C27.4326 28.5938 28.5938 27.4326 28.5938 26.0312V2.96875C28.5938 1.56738 27.4326 0.40625 26.0312 0.40625H2.96875ZM2.96875 2.96875H26.0312V26.0312H19.3848V17.3828H22.708L23.1885 13.5391H19.3848V11.0566C19.3848 9.93555 19.66 9.1748 21.2666 9.1748H23.3486V5.69141C22.9933 5.64636 21.7621 5.57129 20.3457 5.57129C17.3928 5.57129 15.3809 7.34802 15.3809 10.6562V13.5391H12.0176V17.3828H15.3809V26.0312H2.96875V2.96875Z" fill="#2B2A29"/>
</svg>
