<svg width="38" height="29" viewBox="0 0 38 29" fill="none" xmlns="http://www.w3.org/2000/svg">
<path d="M19 0.4375C13.7046 0.4375 9.02441 0.986816 6.16797 1.4043C3.80591 1.75037 1.89978 3.53015 1.46582 5.88672C1.09778 7.89172 0.71875 10.8251 0.71875 14.5C0.71875 18.1749 1.09778 21.1083 1.46582 23.1133C1.89978 25.4698 3.80591 27.2551 6.16797 27.5957C9.0354 28.0132 13.7321 28.5625 19 28.5625C24.2679 28.5625 28.9646 28.0132 31.832 27.5957C34.1941 27.2551 36.1002 25.4698 36.5342 23.1133C36.9022 21.1028 37.2812 18.1639 37.2812 14.5C37.2812 10.8361 36.9077 7.89722 36.5342 5.88672C36.1002 3.53015 34.1941 1.75037 31.832 1.4043C28.9756 0.986816 24.2954 0.4375 19 0.4375ZM19 3.25C24.1086 3.25 28.6735 3.77185 31.4365 4.17285C32.623 4.34863 33.5514 5.24402 33.7656 6.41406C34.1062 8.27075 34.4688 11.0228 34.4688 14.5C34.4688 17.9717 34.1062 20.7292 33.7656 22.5859C33.5514 23.756 32.6285 24.6569 31.4365 24.8271C28.6625 25.2281 24.0757 25.75 19 25.75C13.9243 25.75 9.33203 25.2281 6.56348 24.8271C5.37695 24.6569 4.44861 23.756 4.23438 22.5859C3.8938 20.7292 3.53125 17.9827 3.53125 14.5C3.53125 11.0118 3.8938 8.27075 4.23438 6.41406C4.44861 5.24402 5.37146 4.34863 6.56348 4.17285C9.32105 3.77185 13.8914 3.25 19 3.25ZM14.7812 6.45801V22.542L16.8906 21.3555L26.7344 15.7305L28.8438 14.5L26.7344 13.2695L16.8906 7.64453L14.7812 6.45801ZM17.5938 11.292L23.1748 14.5L17.5938 17.708V11.292Z" fill="#2B2A29"/>
</svg>
