<svg width="30" height="29" viewBox="0 0 30 29" fill="none" xmlns="http://www.w3.org/2000/svg">
<path d="M9.19434 0.40625C4.6449 0.40625 0.90625 4.13989 0.90625 8.69434V20.3057C0.90625 24.8551 4.63989 28.5938 9.19434 28.5938H20.8057C25.3551 28.5938 29.0938 24.8601 29.0938 20.3057V8.69434C29.0938 4.1449 25.3601 0.40625 20.8057 0.40625H9.19434ZM9.19434 2.96875H20.8057C23.9738 2.96875 26.5312 5.52625 26.5312 8.69434V20.3057C26.5312 23.4738 23.9738 26.0312 20.8057 26.0312H9.19434C6.02625 26.0312 3.46875 23.4738 3.46875 20.3057V8.69434C3.46875 5.52625 6.02625 2.96875 9.19434 2.96875ZM22.5674 5.77148C21.9218 5.77148 21.4062 6.28699 21.4062 6.93262C21.4062 7.57825 21.9218 8.09375 22.5674 8.09375C23.213 8.09375 23.7285 7.57825 23.7285 6.93262C23.7285 6.28699 23.213 5.77148 22.5674 5.77148ZM15 6.8125C10.7709 6.8125 7.3125 10.2709 7.3125 14.5C7.3125 18.7291 10.7709 22.1875 15 22.1875C19.2291 22.1875 22.6875 18.7291 22.6875 14.5C22.6875 10.2709 19.2291 6.8125 15 6.8125ZM15 9.375C17.8478 9.375 20.125 11.6522 20.125 14.5C20.125 17.3478 17.8478 19.625 15 19.625C12.1522 19.625 9.875 17.3478 9.875 14.5C9.875 11.6522 12.1522 9.375 15 9.375Z" fill="#2B2A29"/>
</svg>
