<svg width="15" height="16" viewBox="0 0 15 16" fill="none" xmlns="http://www.w3.org/2000/svg">
<path d="M3.36939 0.6875C3.07496 0.6875 2.78492 0.792969 2.54322 0.986328L2.50807 1.00391L2.49049 1.02148L0.732675 2.83203L0.750253 2.84961C0.207529 3.35059 0.0405364 4.09985 0.275644 4.74805C0.277841 4.75244 0.273447 4.76123 0.275644 4.76562C0.75245 6.13013 1.97193 8.76465 4.35377 11.1465C6.74439 13.5371 9.41407 14.7083 10.7346 15.2246H10.7522C11.4356 15.4531 12.176 15.2905 12.7034 14.8379L14.4788 13.0625C14.9446 12.5967 14.9446 11.7881 14.4788 11.3223L12.1936 9.03711L12.176 9.00195C11.7102 8.53613 10.884 8.53613 10.4182 9.00195L9.29322 10.127C8.88673 9.9314 7.91773 9.43042 6.99049 8.54492C6.06983 7.66602 5.59962 6.65527 5.42603 6.25977L6.55103 5.13477C7.02345 4.66235 7.03224 3.87573 6.53346 3.41211L6.55103 3.39453L6.4983 3.3418L4.2483 1.02148L4.23072 1.00391L4.19557 0.986328C3.95387 0.792969 3.66383 0.6875 3.36939 0.6875ZM3.36939 1.8125C3.41114 1.8125 3.45289 1.83228 3.49244 1.86523L5.74244 4.16797L5.79518 4.2207C5.79078 4.21631 5.82813 4.27563 5.76002 4.34375L4.35377 5.75L4.0901 5.99609L4.21314 6.34766C4.21314 6.34766 4.85914 8.0769 6.21705 9.37109L6.3401 9.47656C7.64747 10.6697 9.18775 11.3223 9.18775 11.3223L9.53932 11.4805L11.2092 9.81055C11.3059 9.71387 11.2883 9.71387 11.385 9.81055L13.6878 12.1133C13.7844 12.21 13.7844 12.1748 13.6878 12.2715L11.9651 13.9941C11.7058 14.2161 11.4312 14.2622 11.1038 14.1523C9.82936 13.6514 7.35304 12.5637 5.14478 10.3555C2.91895 8.12964 1.7566 5.60498 1.33033 4.37891C1.24464 4.15039 1.30616 3.81201 1.50611 3.64062L1.54127 3.60547L3.24635 1.86523C3.2859 1.83228 3.32765 1.8125 3.36939 1.8125Z" fill="#2B2A29"/>
</svg>
