<svg width="23" height="25" viewBox="0 0 23 25" fill="none" xmlns="http://www.w3.org/2000/svg">
<path d="M3.26842 0C1.73994 0 0.5 1.34276 0.5 3.00071C0.5 4.65866 1.73894 6.03249 3.26637 6.03249C4.7938 6.03249 6.03478 4.65866 6.03478 3.00071C6.03478 1.34389 4.79689 0 3.26842 0ZM16.7749 7.95455C14.4503 7.95455 13.1201 9.27324 12.4821 10.5846H12.4146V8.30744H7.83333V25H12.607V16.7369C12.607 14.5597 12.7585 12.4556 15.2424 12.4556C17.6907 12.4556 17.7264 14.9382 17.7264 16.8746V25H22.4939H22.5V15.8314C22.5 11.345 21.6107 7.95455 16.7749 7.95455ZM0.88058 8.30744V25H5.6583V8.30744H0.88058Z" fill="#2B2A29"/>
</svg>
