<svg width="32" height="32" viewBox="0 0 32 32" fill="none" xmlns="http://www.w3.org/2000/svg">
<path fill-rule="evenodd" clip-rule="evenodd" d="M26.8956 4.61438C24.0028 1.72156 20.1591 0.125 16.0651 0.125C7.62683 0.125 0.755128 6.9917 0.755128 15.4299C0.750122 18.1276 1.45581 20.7601 2.79712 23.0824L0.625 31.0151L8.74292 28.8831C10.9751 30.1042 13.4976 30.7449 16.0601 30.7499H16.0651C24.5033 30.7499 31.37 23.8832 31.375 15.4399C31.375 11.351 29.7834 7.5072 26.8956 4.61438ZM16.0651 28.1624H16.0601C13.7778 28.1624 11.5356 27.5468 9.58374 26.3906L9.11829 26.1154L4.29858 27.3766L5.58484 22.682L5.28455 22.2015C4.0083 20.1746 3.33765 17.8323 3.33765 15.4299C3.33765 8.41809 9.04822 2.71252 16.0701 2.71252C19.4684 2.71252 22.6615 4.03882 25.0638 6.44116C27.4662 8.84851 28.7875 12.0416 28.7875 15.4399C28.7875 22.4568 23.0769 28.1624 16.0651 28.1624ZM23.0419 18.6331C22.6615 18.4429 20.7797 17.517 20.4293 17.3918C20.079 17.2617 19.8237 17.2017 19.5685 17.582C19.3132 17.9674 18.5825 18.8282 18.3573 19.0835C18.1371 19.3337 17.9119 19.3688 17.5315 19.1786C17.1461 18.9884 15.9149 18.583 14.4535 17.2767C13.3174 16.2657 12.5466 15.0095 12.3264 14.6292C12.1012 14.2438 12.3014 14.0386 12.4916 13.8484C12.6667 13.6782 12.877 13.403 13.0671 13.1777C13.2573 12.9575 13.3224 12.7974 13.4525 12.5421C13.5776 12.2869 13.5126 12.0616 13.4175 11.8715C13.3224 11.6813 12.5566 9.79443 12.2363 9.02869C11.926 8.28296 11.6107 8.38806 11.3755 8.37305C11.1553 8.36304 10.9 8.36304 10.6448 8.36304C10.3895 8.36304 9.97412 8.45813 9.62378 8.84351C9.27344 9.22388 8.28748 10.1498 8.28748 12.0316C8.28748 13.9135 9.65881 15.7352 9.849 15.9905C10.0392 16.2407 12.5466 20.1045 16.3854 21.7611C17.2963 22.1565 18.007 22.3917 18.5625 22.5669C19.4784 22.8572 20.3142 22.8171 20.9749 22.722C21.7106 22.6119 23.2371 21.7961 23.5574 20.9003C23.8727 20.0094 23.8727 19.2437 23.7776 19.0835C23.6825 18.9233 23.4272 18.8282 23.0419 18.6331Z" fill="#2B2A29"/>
</svg>
