<svg width="301" height="36" viewBox="0 0 301 36" fill="none" xmlns="http://www.w3.org/2000/svg">
<path d="M30.1905 21C29.4116 22.6735 28.2957 24.2041 26.7378 25.6735C25.264 27.0204 23.6219 28.0204 21.7692 28.6735C19.9165 29.347 17.8954 29.6735 15.6848 29.6735C11.1162 29.6735 7.24236 28.0816 4.48437 25.4286C1.66322 22.7143 0 18.9388 0 14.6531C0 10.5306 1.76848 6.87754 4.6528 4.24489C7.55816 1.61223 11.5794 0 16.0427 0C19.327 0 21.9587 0.653062 24.1903 1.93878C26.4009 3.22449 28.1905 5.10204 29.7484 7.57143L30.3168 8.46939H29.2431H25.8535H25.6009L25.4114 8.26531C24.1903 6.87755 22.8429 5.71429 21.285 4.89796C19.727 4.10204 17.9796 3.63264 15.8953 3.63264C12.5268 3.63264 9.60034 4.83672 7.51606 6.81631C5.38966 8.81631 4.12646 11.6123 4.12646 14.6939C4.12646 17.898 5.36861 20.7959 7.51606 22.8572C9.57928 24.8367 12.4847 26.0816 15.9585 26.0816C18.548 26.0816 20.927 25.2857 22.864 23.8163C24.6114 22.4898 26.022 20.6326 26.9273 18.3469H12.5478H11.9373V17.7551V15.4898V14.898H12.5478H30.9485H31.6011L31.5379 15.5306C31.3695 17.5306 30.9485 19.3265 30.1905 21ZM49.2228 11.5306C47.9385 10.6735 46.4016 10.3061 44.5489 10.3061C43.4963 10.3061 42.5278 10.4898 41.6436 10.8367C40.7383 11.1837 39.8961 11.7143 39.1172 12.4082C38.6961 12.8163 38.3171 13.2245 37.9592 13.7347C37.7276 14.0816 37.496 14.4694 37.2434 14.9184L52.1492 14.8571C51.286 13.3469 50.3386 12.2653 49.2228 11.5306ZM57.0546 17.551V17.6735V18.2653H56.4441H36.675C36.8434 20.5918 37.6224 22.5918 38.9698 24C40.3172 25.4082 42.2541 26.2449 44.7595 26.2449C46.6122 26.2449 48.4438 25.6939 49.8544 24.6939C51.1597 23.7755 52.1281 22.449 52.465 20.8163L52.5703 20.3469H53.0545H56.0862H56.8862L56.6546 21.102C55.8546 23.6531 54.3177 25.8776 52.1913 27.449C50.1912 28.9388 47.6648 29.8163 44.8437 29.8163C41.3909 29.8163 38.3382 28.551 36.1486 26.4898C33.917 24.4082 32.5906 21.5102 32.5906 18.2857V18C32.6748 14.8367 33.9591 12.0408 36.0855 10.0408C38.2119 8.04081 41.1804 6.83674 44.6331 6.83674H44.97C47.6859 6.89796 49.9807 7.55101 51.8545 8.73468C53.7493 9.93877 55.2019 11.7143 56.1704 14C56.4651 14.6735 56.6967 15.3061 56.823 15.8979C56.9915 16.449 57.0546 17.0204 57.0546 17.551ZM75.6869 12.4898C74.2342 11.102 72.171 10.2653 69.6867 10.2653C67.3708 10.2653 65.4549 11.1633 64.0864 12.5306C62.5917 14.0408 61.7285 16.1225 61.7285 18.2857C61.7285 20.5102 62.5917 22.551 64.0864 24.0204C65.497 25.4082 67.4971 26.2653 69.9182 26.2653C71.1183 26.2653 72.2131 26.0612 73.1815 25.6735C74.15 25.2857 74.9921 24.7143 75.729 23.9388C76.4869 23.1429 77.0764 22.2653 77.4553 21.3265C77.8343 20.3878 78.0238 19.3469 78.0238 18.2449C78.0448 15.9388 77.1817 13.9184 75.6869 12.4898ZM78.5291 26.4082C76.3816 28.4898 73.392 29.7959 69.9393 29.7959C66.4865 29.7959 63.4549 28.5306 61.2653 26.4898C59.0547 24.4082 57.7283 21.5306 57.7283 18.3061C57.7283 15.1429 59.0547 12.2041 61.2653 10.0816C63.4128 8.02039 66.3813 6.71427 69.7498 6.71427C71.4341 6.71427 73.0131 7 74.4447 7.55102C75.8974 8.10205 77.2238 8.93877 78.4238 10.0408C79.6238 11.1429 80.5502 12.3469 81.1607 13.6735C81.7713 15 82.0871 16.449 82.0871 18.0204C82.066 21.2653 80.7397 24.2449 78.5291 26.4082ZM119.478 18.1837V28.6123V29.2041H118.867H116.299H115.688V28.6123V17.6326C115.688 15.7959 115.52 13.9592 114.72 12.6326C113.941 11.3469 112.488 10.4898 109.878 10.4898C108.256 10.4898 106.888 10.898 105.856 11.6531C104.846 12.3878 104.151 13.4694 103.877 14.8367C103.793 15.1837 103.751 15.6531 103.73 16.2653C103.709 16.8571 103.688 17.6327 103.688 18.5714V28.5918V29.1837H103.077H100.551H99.9403V28.5918V17.0204C99.9403 12.653 97.9403 10.4694 94.0033 10.4694C92.3822 10.4694 90.9927 10.8776 89.9189 11.6531C88.8873 12.3878 88.1715 13.4694 87.8768 14.8367C87.8136 15.2041 87.7715 15.6939 87.7294 16.3469C87.6873 16.9388 87.6873 17.6735 87.6873 18.5714V28.5918V29.1837H87.0767H84.424H83.8135V28.5918V18.2041C83.8135 15.7551 84.0661 13.6122 84.9503 11.8163C85.8556 9.97958 87.4136 8.55103 90.0032 7.55102C90.5084 7.32653 91.14 7.18367 91.8348 7.06122C92.5295 6.95918 93.3296 6.89795 94.2138 6.89795C95.7086 6.89795 97.2034 7.14286 98.614 7.77551C99.8561 8.32653 101.035 9.14286 102.109 10.3265C103.225 9.18367 104.362 8.36734 105.583 7.81632C106.993 7.18366 108.467 6.89795 110.109 6.89795C111.899 6.89795 113.393 7.18366 114.657 7.73468C115.941 8.30611 116.951 9.16327 117.688 10.3061C118.257 11.2041 118.699 12.3265 118.994 13.653C119.33 15 119.478 16.4898 119.478 18.1837ZM138.131 11.5306C136.847 10.6735 135.31 10.3061 133.457 10.3061C132.405 10.3061 131.436 10.4898 130.552 10.8367C129.647 11.1837 128.805 11.7143 128.026 12.4082C127.604 12.8163 127.225 13.2245 126.868 13.7347C126.636 14.0816 126.404 14.4694 126.152 14.9184L141.058 14.8571C140.194 13.3469 139.247 12.2653 138.131 11.5306ZM145.963 17.551V17.6735V18.2653H145.352H125.583C125.752 20.5918 126.531 22.5918 127.878 24C129.226 25.4082 131.162 26.2449 133.668 26.2449C135.521 26.2449 137.352 25.6939 138.763 24.6939C140.068 23.7755 141.037 22.449 141.373 20.8163L141.479 20.3469H141.963H144.995H145.795L145.563 21.102C144.763 23.6531 143.226 25.8776 141.1 27.449C139.1 28.9388 136.573 29.8163 133.752 29.8163C130.299 29.8163 127.247 28.551 125.057 26.4898C122.825 24.4082 121.499 21.5102 121.499 18.2857V18C121.583 14.8367 122.867 12.0408 124.994 10.0408C127.12 8.04081 130.089 6.83674 133.542 6.83674H133.878C136.594 6.89796 138.889 7.55101 140.763 8.73468C142.658 9.93877 144.11 11.7143 145.079 14C145.374 14.6735 145.605 15.3061 145.731 15.8979C145.9 16.449 145.963 17.0204 145.963 17.551ZM158.258 7.87755V10.3673V10.9592H157.648H153.963V28.5306V29.1225H153.353H150.616H150.005V28.5306V10.9592H146.321H145.71V10.3673V7.87755V7.28571H146.321H150.005V1.14285V0.551011H150.616H153.353H153.963V1.14285V7.28571H157.648H158.258V7.87755ZM164.258 12.3469C163.564 13.1225 163.29 14.3469 163.29 16.1225V28.6123V29.2041H162.679H159.942H159.332V28.6123V16.4898C159.332 14.3673 159.606 12.6531 160.427 11.2245C162.069 8.32654 165.143 7.30611 168.364 7.30611H170.722L177.459 23.5918L184.512 7.30611H188.975L176.406 35.6531L176.259 36H175.859H172.953H172.027L172.385 35.1837L175.269 28.7143L167.816 10.9796C166.111 11.0204 164.953 11.5714 164.258 12.3469ZM210.26 1.14285V28.5306V29.1225H209.649H206.912H206.302V28.5306V16.6327H193.038V28.5306V29.1225H192.428H189.691H189.08V28.5306V1.14285V0.551011H189.691H192.428H193.038V1.14285V13.0408H206.302V1.14285V0.551011H206.912H209.649H210.26V1.14285ZM230.724 12.4898C229.271 11.102 227.208 10.2653 224.724 10.2653C222.408 10.2653 220.492 11.1633 219.123 12.5306C217.629 14.0408 216.765 16.1225 216.765 18.2857C216.765 20.5102 217.629 22.551 219.123 24.0204C220.534 25.4082 222.534 26.2653 224.955 26.2653C226.155 26.2653 227.25 26.0612 228.219 25.6735C229.187 25.2857 230.029 24.7143 230.766 23.9388C231.524 23.1429 232.113 22.2653 232.492 21.3265C232.871 20.3878 233.061 19.3469 233.061 18.2449C233.082 15.9388 232.24 13.9184 230.724 12.4898ZM233.566 26.4082C231.419 28.4898 228.429 29.7959 224.976 29.7959C221.524 29.7959 218.492 28.5306 216.302 26.4898C214.092 24.4082 212.765 21.5306 212.765 18.3061C212.765 15.1429 214.092 12.2041 216.302 10.0816C218.45 8.02039 221.418 6.71427 224.787 6.71427C226.471 6.71427 228.05 7 229.482 7.55102C230.934 8.10205 232.261 8.93877 233.461 10.0408C234.661 11.1429 235.587 12.3469 236.198 13.6735C236.808 15 237.124 16.449 237.124 18.0204C237.124 21.2653 235.798 24.2449 233.566 26.4082ZM274.515 18.1837V28.6123V29.2041H273.904H271.336H270.725V28.6123V17.6326C270.725 15.7959 270.557 13.9592 269.757 12.6326C268.978 11.3469 267.525 10.4898 264.915 10.4898C263.293 10.4898 261.925 10.898 260.893 11.6531C259.883 12.3878 259.188 13.4694 258.914 14.8367C258.83 15.1837 258.788 15.6531 258.767 16.2653C258.746 16.8571 258.725 17.6327 258.725 18.5714V28.5918V29.1837H258.114H255.588H254.977V28.5918V17.0204C254.977 12.653 252.977 10.4694 249.04 10.4694C247.419 10.4694 246.03 10.8776 244.956 11.6531C243.924 12.3878 243.208 13.4694 242.914 14.8367C242.851 15.2041 242.808 15.6939 242.766 16.3469C242.724 16.9388 242.724 17.6735 242.724 18.5714V28.5918V29.1837H242.114H239.503H238.893V28.5918V18.2041C238.893 15.7551 239.145 13.6122 240.029 11.8163C240.935 9.97958 242.493 8.55103 245.082 7.55102C245.588 7.32653 246.219 7.18367 246.914 7.06122C247.609 6.95918 248.409 6.89795 249.293 6.89795C250.788 6.89795 252.283 7.14286 253.693 7.77551C254.935 8.32653 256.114 9.14286 257.188 10.3265C258.304 9.18367 259.441 8.36734 260.662 7.81632C262.072 7.18366 263.546 6.89795 265.188 6.89795C266.978 6.89795 268.473 7.18366 269.736 7.73468C271.02 8.30611 272.031 9.16327 272.767 10.3061C273.336 11.2041 273.778 12.3265 274.073 13.653C274.367 15 274.515 16.4898 274.515 18.1837ZM293.189 11.5306C291.905 10.6735 290.368 10.3061 288.515 10.3061C287.463 10.3061 286.494 10.4898 285.61 10.8367C284.705 11.1837 283.863 11.7143 283.084 12.4082C282.663 12.8163 282.284 13.2245 281.926 13.7347C281.694 14.0816 281.462 14.4694 281.21 14.9184L296.116 14.8571C295.252 13.3469 294.284 12.2653 293.189 11.5306ZM301 17.551V17.6735V18.2653H300.389H280.62C280.789 20.5918 281.568 22.5918 282.915 24C284.263 25.4082 286.199 26.2449 288.705 26.2449C290.558 26.2449 292.389 25.6939 293.8 24.6939C295.105 23.7755 296.074 22.449 296.41 20.8163L296.516 20.3469H297H300.032H300.832L300.6 21.102C299.8 23.6531 298.263 25.8776 296.137 27.449C294.137 28.9388 291.61 29.8163 288.789 29.8163C285.336 29.8163 282.284 28.551 280.094 26.4898C277.862 24.4082 276.536 21.5102 276.536 18.2857V18C276.62 14.8367 277.904 12.0408 280.031 10.0408C282.157 8.04081 285.126 6.83674 288.578 6.83674H288.915C291.631 6.89796 293.926 7.55101 295.8 8.73468C297.695 9.93877 299.147 11.7143 300.116 14C300.41 14.6735 300.642 15.3061 300.768 15.8979C300.937 16.449 301 17.0204 301 17.551Z" fill="#2B2A29"/>
</svg>
