<svg width="247" height="118" viewBox="0 0 247 118" fill="none" xmlns="http://www.w3.org/2000/svg">
<path d="M29.9774 117.954C34.2987 108.31 38.4836 98.9851 42.8049 89.3418C42.8049 99.0761 42.8049 108.356 42.8049 117.772C45.7162 117.772 48.7183 117.772 51.7205 117.772C51.7205 104.171 51.7205 90.6609 51.7205 77.1056C47.6721 77.1056 43.5327 77.1056 39.6663 77.1056C35.163 87.1583 30.6597 97.1656 26.111 107.218C21.5167 97.0292 17.0589 87.0674 12.6011 77.1511C8.5982 77.1511 4.45882 77.1511 0.546875 77.1511C0.546875 90.7974 0.546875 104.262 0.546875 117.726C3.59455 117.726 6.64223 117.726 9.46246 117.726C9.46246 108.31 9.46246 99.0306 9.46246 89.3872C13.7838 99.0306 18.0142 108.447 22.29 117.954C24.7463 117.954 27.5211 117.954 29.9774 117.954ZM140.376 98.5758C141.24 98.1209 141.559 97.9389 141.877 97.8025C145.698 96.1194 147.927 93.2537 147.927 88.9779C147.927 84.5201 146.244 80.7901 141.923 79.198C139.057 78.1518 135.918 77.515 132.916 77.333C127.64 77.0601 122.317 77.242 116.995 77.242C113.993 77.242 110.991 77.242 107.943 77.242C107.943 90.6609 107.943 104.262 107.943 117.863C111.127 117.863 114.403 117.863 117.496 117.863C117.496 112.813 117.496 107.946 117.496 102.988C122.408 102.988 127.321 102.806 132.234 103.034C137.01 103.306 138.147 104.762 138.693 109.538C138.966 111.858 139.375 114.178 139.83 116.452C140.012 117.499 140.604 118.044 141.923 117.954C144.697 117.772 147.518 117.908 149.747 117.908C149.11 115.725 148.245 113.314 147.654 110.766C147.245 109.083 147.199 107.309 146.972 105.581C146.517 101.987 144.97 99.2581 140.376 98.5758ZM109.535 33.6648C109.581 33.9377 109.581 34.2561 109.626 34.5291C109.899 34.7565 110.172 35.0749 110.491 35.1659C116.586 36.9399 122.59 38.9869 128.777 40.2605C133.28 41.1703 136.828 38.8049 139.057 34.711C139.876 33.2554 140.513 31.6634 141.513 30.3897C142.514 29.116 143.742 27.7059 145.152 27.1601C147.927 26.0684 150.929 25.477 153.886 24.7492C155.114 24.4763 156.024 24.7037 156.024 26.4323C156.024 28.7976 156.843 29.5254 159.117 29.1615C168.897 27.7514 178.449 25.4315 187.228 20.6553C192.96 17.5622 196.462 12.695 198.327 6.59962C200.01 1.18659 199.101 0.0493941 193.551 0.00390639C193.005 0.00390639 192.505 0.0493941 191.959 0.00390639C188.775 -0.087069 186.592 1.41403 185.272 4.18878C184.181 6.41768 183.362 8.82852 182.134 10.9664C181.451 12.1491 180.36 13.5138 179.223 13.8322C174.856 14.9694 170.352 15.8336 165.895 16.5614C164.348 16.8344 162.483 16.3795 162.483 14.469C162.438 11.9672 160.982 11.8307 159.344 12.2401C155.023 13.2863 150.702 14.469 146.471 15.7881C143.651 16.6524 141.968 18.7448 141.104 21.5196C140.831 22.3839 140.513 23.2481 140.24 24.1124C139.648 26.0229 138.466 27.1601 136.419 27.5695C131.642 28.4792 126.912 29.4345 122.181 30.4807C117.905 31.4814 113.72 32.6186 109.535 33.6648ZM203.331 117.772C205.469 117.772 207.561 117.817 209.699 117.772C215.84 117.635 221.981 117.817 228.076 117.271C234.399 116.68 239.949 114.042 243.36 108.31C250.684 96.0739 244.588 80.8356 230.624 78.3792C221.663 76.7872 212.338 77.242 203.331 76.7417C203.331 90.7519 203.331 104.262 203.331 117.772ZM157.57 77.0601C157.57 90.7519 157.57 104.353 157.57 117.908C169.989 117.908 182.361 117.908 194.825 117.908C194.825 115.27 194.825 112.495 194.825 109.902C185.5 109.902 176.266 109.902 166.986 109.902C166.986 106.945 166.986 103.989 166.986 101.123C175.174 101.123 183.18 101.123 191.14 101.123C191.14 98.3483 191.14 95.6191 191.14 93.0263C182.998 93.0263 174.992 93.0263 166.941 93.0263C166.941 90.297 166.941 87.6132 166.941 84.9295C176.038 84.9295 184.999 84.9295 193.915 84.9295C193.915 82.2457 193.915 79.6074 193.915 77.0601C181.724 77.0601 169.67 77.0601 157.57 77.0601ZM62.4101 77.0601C62.4101 90.7519 62.4101 104.353 62.4101 117.908C74.8738 117.908 87.3374 117.908 99.6646 117.908C99.6646 115.133 99.6646 112.45 99.6646 109.902C90.2941 109.902 81.1056 109.902 71.8261 109.902C71.8261 106.945 71.8261 103.943 71.8261 101.123C80.0139 101.123 88.0197 101.123 96.0256 101.123C96.0256 98.3938 96.0256 95.71 96.0256 93.0263C87.9287 93.0263 79.8774 93.0263 71.7806 93.0263C71.7806 90.2515 71.7806 87.5677 71.7806 84.9295C80.8782 84.9295 89.8392 84.9295 98.8003 84.9295C98.8003 82.2912 98.8003 79.6529 98.8003 77.0601C86.7006 77.0601 74.6008 77.0601 62.4101 77.0601ZM79.1041 32.3002C82.2428 35.8482 86.0637 36.667 90.3396 36.0757C99.4371 34.802 108.489 26.7052 110.718 17.7896C111.082 16.3795 111.173 14.8784 111.4 13.4228C106.761 21.2922 95.0703 24.5673 88.1562 23.6575C85.3359 23.2481 83.9713 21.8835 83.7894 19.0178C83.6984 17.2892 84.0623 15.4697 84.1988 13.7412C84.0168 13.6502 83.8803 13.5592 83.6984 13.5138C82.1063 17.3347 80.2413 21.0647 79.1041 24.9767C78.4218 27.251 77.5121 28.2063 75.2377 28.4792C67.7777 29.298 60.3632 30.1623 52.9032 31.072C50.9927 31.2995 49.1277 31.8908 46.8988 32.3912C47.4902 33.028 47.6721 33.4374 47.9905 33.5284C53.8585 35.8937 59.6354 38.5775 65.6853 40.397C70.4615 41.8526 74.4189 39.7147 77.0572 35.3933C77.6485 34.3016 78.3763 33.3464 79.1041 32.3002ZM145.016 52.2693C150.929 51.1776 156.251 50.1768 161.573 49.1306C162.119 49.0396 162.801 48.7212 163.029 48.2664C164.757 44.9912 166.395 41.7161 168.26 37.9861C162.301 39.0778 156.797 40.1241 151.339 41.1703C150.884 41.2613 150.383 41.6706 150.156 42.1255C148.473 45.3097 146.881 48.5848 145.016 52.2693ZM105.669 43.3537C105.396 43.2172 105.26 43.0808 105.123 43.1263C99.7555 44.0815 94.388 45.0367 89.0204 46.083C88.5656 46.1739 88.0197 46.5378 87.7923 46.9472C86.1092 50.2223 84.4717 53.4975 82.6067 57.182C88.5656 56.0902 94.0696 55.044 99.5281 53.9978C99.983 53.9068 100.483 53.452 100.665 53.0426C102.439 49.8129 104.031 46.5833 105.669 43.3537Z" fill="white"/>
<path d="M29.976 117.953C27.5197 117.953 24.7449 117.953 22.2431 117.953C17.9673 108.447 13.7369 99.0305 9.41559 89.3871C9.41559 99.0305 9.41559 108.265 9.41559 117.726C6.64084 117.726 3.59316 117.726 0.5 117.726C0.5 104.262 0.5 90.7973 0.5 77.151C4.41194 77.151 8.55132 77.151 12.5542 77.151C17.012 87.0673 21.5153 97.0746 26.0641 107.218C30.6129 97.1656 35.1161 87.1583 39.6194 77.1055C43.4859 77.1055 47.6253 77.1055 51.6737 77.1055C51.6737 90.6608 51.6737 104.171 51.6737 117.771C48.6715 117.771 45.7148 117.771 42.7581 117.771C42.7581 108.401 42.7581 99.1215 42.7581 89.3417C38.4822 98.9851 34.2974 108.31 29.976 117.953Z" fill="#2B2A29"/>
<path d="M140.374 98.574C144.923 99.3018 146.515 101.986 146.97 105.625C147.197 107.353 147.243 109.127 147.652 110.81C148.244 113.312 149.108 115.768 149.745 117.952C147.47 117.952 144.695 117.815 141.921 117.997C140.602 118.088 140.01 117.497 139.828 116.496C139.373 114.222 138.964 111.902 138.691 109.582C138.145 104.806 136.963 103.35 132.232 103.077C127.319 102.804 122.406 103.032 117.494 103.032C117.494 107.99 117.494 112.903 117.494 117.906C114.401 117.906 111.171 117.906 107.941 117.906C107.941 104.305 107.941 90.7046 107.941 77.2857C110.989 77.2857 113.991 77.2857 116.993 77.2857C122.316 77.2857 127.638 77.0583 132.914 77.3767C135.962 77.5587 139.1 78.15 141.921 79.2417C146.242 80.8793 147.925 84.5638 147.925 89.0216C147.925 93.2519 145.742 96.1176 141.875 97.8462C141.557 97.9371 141.238 98.1191 140.374 98.574ZM117.357 95.1624C122.725 95.1624 127.911 95.2534 133.096 95.0714C134.506 95.0259 136.053 94.3436 137.281 93.5248C139.51 92.0692 140.01 88.8851 138.191 86.9746C137.145 85.8829 135.416 84.8367 133.96 84.7457C128.502 84.4728 122.998 84.6547 117.357 84.6547C117.357 88.1573 117.357 91.6144 117.357 95.1624Z" fill="#2B2A29"/>
<path d="M109.535 33.6648C113.766 32.6186 117.95 31.4359 122.181 30.4807C126.911 29.4344 131.642 28.4792 136.418 27.5695C138.42 27.1601 139.648 26.0229 140.239 24.1124C140.512 23.2481 140.831 22.3839 141.104 21.5196C141.968 18.7448 143.651 16.6524 146.471 15.7881C150.747 14.469 155.023 13.3318 159.344 12.2401C160.936 11.8307 162.437 11.9672 162.483 14.469C162.528 16.3795 164.393 16.8344 165.894 16.5614C170.352 15.7881 174.855 14.9694 179.222 13.8322C180.405 13.5138 181.497 12.1036 182.134 10.9664C183.362 8.78303 184.18 6.41768 185.272 4.18878C186.637 1.41403 188.82 -0.087069 191.959 0.00390639C192.505 0.00390639 193.005 0.00390639 193.551 0.00390639C199.1 0.0493941 200.01 1.18659 198.327 6.59962C196.462 12.695 192.914 17.5622 187.228 20.6553C178.449 25.4315 168.897 27.7514 159.117 29.1615C156.842 29.4799 156.024 28.7521 156.024 26.4323C156.024 24.7037 155.114 24.4763 153.886 24.7492C150.929 25.4315 147.927 26.0229 145.152 27.1601C143.742 27.7059 142.514 29.116 141.513 30.3897C140.512 31.6634 139.83 33.2554 139.057 34.711C136.828 38.7594 133.325 41.1703 128.776 40.2605C122.59 38.9869 116.54 36.9399 110.49 35.1659C110.172 35.0749 109.899 34.7565 109.626 34.5291C109.581 34.2561 109.535 33.9377 109.535 33.6648Z" fill="#2B2A29"/>
<path d="M203.328 117.772C203.328 104.262 203.328 90.7524 203.328 76.7422C212.289 77.1971 221.614 76.7877 230.621 78.3797C244.585 80.8361 250.726 96.0745 243.357 108.311C239.9 114.042 234.396 116.68 228.073 117.272C221.978 117.818 215.837 117.636 209.696 117.772C207.604 117.818 205.466 117.772 203.328 117.772ZM212.699 84.5206C212.699 93.2087 212.699 101.806 212.699 110.449C216.974 110.449 221.159 110.767 225.253 110.403C232.895 109.721 237.035 104.581 236.898 96.5748C236.762 89.7517 232.167 85.0664 224.889 84.5661C220.886 84.3386 216.883 84.5206 212.699 84.5206Z" fill="#2B2A29"/>
<path d="M157.57 77.0625C169.716 77.0625 181.724 77.0625 193.915 77.0625C193.915 79.6098 193.915 82.2481 193.915 84.9319C184.999 84.9319 176.038 84.9319 166.941 84.9319C166.941 87.6157 166.941 90.2994 166.941 93.0287C175.038 93.0287 183.043 93.0287 191.14 93.0287C191.14 95.6215 191.14 98.3508 191.14 101.126C183.18 101.126 175.174 101.126 166.986 101.126C166.986 103.991 166.986 106.948 166.986 109.905C176.266 109.905 185.5 109.905 194.825 109.905C194.825 112.497 194.825 115.272 194.825 117.91C182.361 117.91 169.988 117.91 157.57 117.91C157.57 104.355 157.57 90.7543 157.57 77.0625Z" fill="#2B2A29"/>
<path d="M62.4102 77.0625C74.6009 77.0625 86.6551 77.0625 98.8003 77.0625C98.8003 79.7008 98.8003 82.2936 98.8003 84.9319C89.8847 84.9319 80.9237 84.9319 71.7806 84.9319C71.7806 87.5702 71.7806 90.2539 71.7806 93.0287C79.8774 93.0287 87.9288 93.0287 96.0256 93.0287C96.0256 95.7125 96.0256 98.3962 96.0256 101.126C88.0197 101.126 80.0594 101.126 71.8261 101.126C71.8261 103.946 71.8261 106.902 71.8261 109.905C81.1056 109.905 90.2941 109.905 99.6646 109.905C99.6646 112.452 99.6646 115.136 99.6646 117.91C87.2919 117.91 74.8738 117.91 62.4102 117.91C62.4102 104.355 62.4102 90.7543 62.4102 77.0625Z" fill="#2B2A29"/>
<path d="M79.1023 32.3004C78.3745 33.3466 77.6467 34.2564 77.0099 35.3026C74.3716 39.6239 70.4142 41.7618 65.638 40.3062C59.5881 38.4867 53.8112 35.8029 47.9433 33.4376C47.6249 33.3011 47.4429 32.9372 46.8516 32.3004C49.0805 31.8 50.9455 31.2542 52.8559 30.9813C60.2704 30.026 67.7304 29.1617 75.1904 28.3884C77.4193 28.161 78.3745 27.2058 79.0569 24.8859C80.194 20.974 82.1045 17.244 83.6511 13.423C83.8331 13.514 83.9695 13.6049 84.1515 13.6504C84.015 15.4245 83.6511 17.1985 83.7421 18.927C83.924 21.7927 85.3342 23.1574 88.1089 23.5668C95.023 24.522 106.668 21.2469 111.353 13.332C111.126 14.7876 111.035 16.2887 110.671 17.6988C108.442 26.6144 99.4353 34.7112 90.2923 35.9849C86.062 36.6672 82.241 35.8484 79.1023 32.3004Z" fill="#2B2A29"/>
<path d="M145.016 52.27C146.881 48.54 148.473 45.3104 150.156 42.0808C150.383 41.6714 150.884 41.2165 151.338 41.1255C156.797 40.0793 162.301 39.0331 168.26 37.9414C166.395 41.6714 164.757 44.992 163.029 48.2216C162.801 48.631 162.119 48.9494 161.573 49.0859C156.251 50.1776 150.884 51.1783 145.016 52.27Z" fill="#2B2A29"/>
<path d="M105.667 43.3535C104.029 46.5832 102.437 49.8583 100.754 53.0424C100.526 53.4518 100.026 53.9067 99.6167 53.9977C94.1582 55.0894 88.6542 56.0901 82.6953 57.1818C84.5603 53.4973 86.1524 50.2222 87.8809 46.9471C88.1083 46.5377 88.6542 46.1738 89.1091 46.0828C94.4766 45.0821 99.8442 44.0814 105.212 43.1261C105.257 43.0806 105.394 43.2171 105.667 43.3535Z" fill="#2B2A29"/>
<path d="M117.359 95.1654C117.359 91.6174 117.359 88.1603 117.359 84.6578C122.954 84.6578 128.458 84.5213 133.962 84.7488C135.418 84.8397 137.147 85.8405 138.193 86.9777C140.012 88.8881 139.466 92.0723 137.283 93.5279C136.055 94.3467 134.554 95.029 133.098 95.0745C127.913 95.3019 122.727 95.1654 117.359 95.1654Z" fill="white"/>
<path d="M212.699 84.5185C216.884 84.5185 220.887 84.2911 224.89 84.564C232.168 85.0189 236.762 89.7496 236.899 96.5728C237.035 104.579 232.896 109.719 225.254 110.401C221.16 110.765 216.975 110.447 212.699 110.447C212.699 101.804 212.699 93.2067 212.699 84.5185Z" fill="white"/>
</svg>
