<svg width="252" height="94" viewBox="0 0 252 94" fill="none" xmlns="http://www.w3.org/2000/svg">
<g clip-path="url(#clip0_757_6730)">
<mask id="mask0_757_6730" style="mask-type:luminance" maskUnits="userSpaceOnUse" x="0" y="0" width="252" height="95">
<path d="M251.341 0.00390625H0.5V94.0039H251.341V0.00390625Z" fill="white"/>
</mask>
<g mask="url(#mask0_757_6730)">
<path d="M14.0692 80.0272C12.8142 79.1186 11.2097 78.6016 8.76322 78.6016H3.91797V93.7826H8.76322C11.2097 93.7826 12.8142 93.2656 14.0692 92.3569C15.9596 90.9626 17.1193 88.7066 17.1193 86.1999C17.1193 83.6932 15.9596 81.4216 14.0692 80.0429V80.0272ZM13.0366 89.4899C12.1787 90.5552 10.9237 91.1819 9.09683 91.1819H6.90455V81.2022H9.09683C10.9237 81.2022 12.1787 81.8289 13.0366 82.8942C13.7356 83.7559 14.1645 84.9309 14.1645 86.1842C14.1645 87.4376 13.7514 88.6126 13.0366 89.4742V89.4899Z" fill="#2B2A29"/>
<path d="M31.748 86.9519H36.4821V84.3512H31.748V81.2022H38.0232V78.6016H28.7773V93.7826H38.2296V91.1819H31.748V86.9519Z" fill="#2B2A29"/>
<path d="M56.1662 88.9729L51.9723 78.6016H48.9062L55.1336 93.7826H57.2147L63.442 78.6016H60.3919L56.1662 88.9729Z" fill="#2B2A29"/>
<path d="M77.6269 86.9519H82.361V84.3512H77.6269V81.2022H83.9019V78.6016H74.6562V93.7826H84.1243V91.1819H77.6269V86.9519Z" fill="#2B2A29"/>
<path d="M98.9629 78.6016H95.9922V93.7826H105.46V91.1819H98.9629V78.6016Z" fill="#2B2A29"/>
<path d="M123.046 78.3828C118.296 78.3828 115.023 81.8765 115.023 86.1848C115.023 90.4931 118.296 93.9868 123.046 93.9868C127.796 93.9868 131.068 90.4931 131.068 86.1848C131.068 81.8765 127.796 78.3828 123.046 78.3828ZM123.046 91.4018C120.139 91.4018 117.994 89.0675 117.994 86.2005C117.994 83.3335 120.155 80.9991 123.046 80.9991C125.937 80.9991 128.098 83.3491 128.098 86.2005C128.098 89.0518 125.937 91.4018 123.046 91.4018Z" fill="#2B2A29"/>
<path d="M148.513 78.6016H142.73V93.7826H145.701V87.5943H148.513C150.499 87.5943 151.674 87.1086 152.516 86.2469C153.279 85.4636 153.724 84.2886 153.724 83.0979C153.724 81.9073 153.279 80.7323 152.516 79.9489C151.658 79.0559 150.499 78.5859 148.513 78.5859V78.6016ZM150.26 84.3983C149.911 84.7743 149.403 85.0093 148.386 85.0093H145.701V81.2179H148.386C149.403 81.2179 149.911 81.4529 150.26 81.8289C150.594 82.1736 150.769 82.6279 150.769 83.1293C150.769 83.6306 150.594 84.0693 150.26 84.4139V84.3983Z" fill="#2B2A29"/>
<path d="M172.865 87.6882L167.257 78.6016H165.176V93.7826H168.146V85.3226L171.832 91.2916H173.897L177.599 85.3226V93.7826H180.569V78.6016H178.472L172.865 87.6882Z" fill="#2B2A29"/>
<path d="M196.299 86.9519H201.017V84.3512H196.299V81.2022H202.558V78.6016H193.328V93.7826H202.78V91.1819H196.299V86.9519Z" fill="#2B2A29"/>
<path d="M225.32 88.4872L216.741 78.6016H214.66V93.7826H217.631V83.8969L226.209 93.7826H228.29V78.6016H225.32V88.4872Z" fill="#2B2A29"/>
<path d="M240.238 81.2022H244.305V93.7826H247.276V81.2022H251.343V78.6016H240.238V81.2022Z" fill="#2B2A29"/>
<path d="M123.665 38.6355C123.665 44.4479 122.092 48.0042 119.423 50.4482C116.659 53.0802 112.783 54.5372 108.462 54.5372C104.141 54.5372 100.265 53.0802 97.5007 50.4482C94.8318 47.9885 93.2591 44.4479 93.2591 38.6355V0.910156H80.8203V37.7269C80.8203 47.4559 83.7751 54.1769 89.1128 58.9082C94.0852 63.2792 101.186 65.4569 108.462 65.4569C115.738 65.4569 122.839 63.2792 127.811 58.9082C133.165 54.1769 136.104 47.4559 136.104 37.7269V0.910156H123.665V38.6355Z" fill="#2B2A29"/>
<path d="M194.281 58.8142C197.871 55.3675 200.174 50.4482 200.174 45.0902C200.174 37.9932 196.203 31.6325 190.5 28.8125C192.613 26.6349 194.646 22.3579 194.646 18.1749C194.646 12.9892 192.247 8.44583 188.657 5.35949C185.527 2.63349 181.461 0.910156 174.185 0.910156H152.246V64.5482H177.41C185.702 64.5482 190.69 62.3705 194.281 58.8142ZM164.685 11.8142H173.438C177.314 11.8142 179.062 12.7228 180.349 14.0858C181.461 15.2608 182.191 16.9059 182.191 18.6292C182.191 20.3525 181.461 21.9975 180.349 23.1725C179.062 24.5355 177.314 25.4442 173.438 25.4442H164.685V11.8142ZM164.685 53.6442V36.3795H177.124C181.461 36.3795 183.859 37.4762 185.416 39.1995C186.894 40.7505 187.72 42.7402 187.72 45.0119C187.72 47.2835 186.894 49.2889 185.416 50.8242C183.844 52.5475 181.445 53.6442 177.124 53.6442H164.685Z" fill="#2B2A29"/>
<path d="M251.343 11.8142V0.910156H211.707V64.5482H251.343V53.6442H224.146V35.9095H243.956V25.0055H224.146V11.8142H251.343Z" fill="#2B2A29"/>
<path d="M7.38011 53.0192C17.4995 66.4612 39.1206 69.2969 53.1639 60.1162L57.58 64.5499H74.8642L62.0281 51.6249C76.691 30.2712 62.489 -0.357183 34.1957 0.00315039C13.385 -0.231849 0.342574 16.1086 0.501435 33.1852C0.564979 40.0002 2.74137 46.9562 7.36422 53.0036L7.38011 53.0192ZM34.1957 10.9072C50.5266 10.6878 60.0741 28.8142 53.1321 42.6636L39.2159 28.6576L30.3197 37.1019L44.8235 51.7032C30.9232 59.7559 13.6392 49.9329 13.0197 33.9842C12.2571 21.7486 21.5347 10.8132 34.18 10.9072H34.1957Z" fill="#2B2A29"/>
</g>
</g>
<defs>
<clipPath id="clip0_757_6730">
<rect width="251" height="94" fill="white" transform="translate(0.5 0.00390625)"/>
</clipPath>
</defs>
</svg>
