<svg width="342" height="42" viewBox="0 0 342 42" fill="none" xmlns="http://www.w3.org/2000/svg">
<path d="M34.3029 24.5C33.4178 26.4524 32.15 28.2381 30.3798 29.9524C28.7053 31.5238 26.8395 32.6905 24.7344 33.4524C22.6294 34.2381 20.3329 34.619 17.8212 34.619C12.6303 34.619 8.22886 32.7619 5.0952 29.6667C1.88977 26.5 0 22.0952 0 17.0952C0 12.2857 2.00937 8.0238 5.28657 4.95237C8.58768 1.88094 13.1566 0 18.2279 0C21.9596 0 24.9497 0.761905 27.4853 2.26191C29.9971 3.76191 32.0304 5.95238 33.8005 8.83333L34.4464 9.88096H33.2264H29.3751H29.0881L28.8728 9.64286C27.4854 8.02381 25.9544 6.66667 24.1842 5.71429C22.4141 4.78572 20.4286 4.23808 18.0604 4.23808C14.2331 4.23808 10.908 5.64284 8.53984 7.95236C6.12381 10.2857 4.68854 13.5476 4.68854 17.1429C4.68854 20.881 6.09988 24.2619 8.53984 26.6667C10.8841 28.9762 14.1852 30.4286 18.1322 30.4286C21.0745 30.4286 23.7776 29.5 25.9783 27.7857C27.9638 26.2381 29.5665 24.0714 30.5951 21.4048H14.257H13.5633V20.7143V18.0714V17.381H14.257H35.164H35.9056L35.8338 18.1191C35.6425 20.4524 35.164 22.5476 34.3029 24.5ZM55.9275 13.4524C54.4684 12.4524 52.7221 12.0238 50.6171 12.0238C49.421 12.0238 48.3206 12.2381 47.316 12.6429C46.2873 13.0476 45.3305 13.6667 44.4454 14.4762C43.967 14.9524 43.5364 15.4286 43.1298 16.0238C42.8666 16.4286 42.6035 16.881 42.3164 17.4048L59.2526 17.3333C58.2718 15.5714 57.1954 14.3095 55.9275 13.4524ZM64.8262 20.4762V20.6191V21.3095H64.1325H41.6706C41.8619 24.0238 42.747 26.3572 44.278 28C45.8089 29.6429 48.0097 30.6191 50.8563 30.6191C52.9613 30.6191 55.0425 29.9762 56.6452 28.8095C58.1283 27.7381 59.2286 26.1905 59.6114 24.2857L59.731 23.7381H60.2812H63.7258H64.6348L64.3717 24.619C63.4627 27.5952 61.7164 30.1905 59.3004 32.0238C57.0279 33.7619 54.1574 34.7857 50.952 34.7857C47.0289 34.7857 43.5603 33.3095 41.0725 30.9048C38.5369 28.4762 37.0299 25.0952 37.0299 21.3333V21C37.1256 17.3095 38.5847 14.0476 41.0008 11.7143C43.4168 9.38095 46.7897 7.97619 50.7127 7.97619H51.0955C54.1813 8.04762 56.7887 8.80951 58.9177 10.1905C61.0706 11.5952 62.7211 13.6667 63.8215 16.3333C64.1564 17.1191 64.4195 17.8571 64.5631 18.5476C64.7544 19.1905 64.8262 19.8572 64.8262 20.4762ZM85.9964 14.5714C84.3458 12.9524 82.0016 11.9762 79.1789 11.9762C76.5475 11.9762 74.3707 13.0238 72.8158 14.619C71.1174 16.3809 70.1367 18.8095 70.1367 21.3333C70.1367 23.9286 71.1174 26.3095 72.8158 28.0238C74.4186 29.6429 76.6911 30.6429 79.442 30.6429C80.8055 30.6429 82.0494 30.4048 83.1498 29.9524C84.2501 29.5 85.207 28.8333 86.0442 27.9286C86.9054 27 87.5752 25.9762 88.0057 24.881C88.4363 23.7857 88.6516 22.5714 88.6516 21.2857C88.6755 18.5952 87.6948 16.2381 85.9964 14.5714ZM89.2257 30.8095C86.7858 33.2381 83.389 34.7619 79.4659 34.7619C75.5428 34.7619 72.0982 33.2857 69.6104 30.9048C67.0987 28.4762 65.5917 25.119 65.5917 21.3571C65.5917 17.6667 67.0987 14.2381 69.6104 11.7619C72.0504 9.35712 75.4232 7.83331 79.2506 7.83331C81.1643 7.83331 82.9584 8.16667 84.585 8.80953C86.2356 9.45239 87.7426 10.4286 89.1061 11.7143C90.4696 13 91.5222 14.4048 92.2159 15.9524C92.9096 17.5 93.2684 19.1905 93.2684 21.0238C93.2445 24.8095 91.7374 28.2857 89.2257 30.8095ZM135.752 21.2143V33.381V34.0714H135.059H132.14H131.446V33.381V20.5714C131.446 18.4286 131.255 16.2857 130.346 14.7381C129.461 13.2381 127.81 12.2381 124.844 12.2381C123.002 12.2381 121.447 12.7143 120.275 13.5952C119.127 14.4524 118.338 15.7143 118.027 17.3095C117.931 17.7143 117.883 18.2619 117.859 18.9762C117.835 19.6667 117.811 20.5714 117.811 21.6667V33.3572V34.0476H117.118H114.247H113.553V33.3572V19.8571C113.553 14.7619 111.281 12.2143 106.808 12.2143C104.966 12.2143 103.387 12.6905 102.167 13.5952C100.995 14.4524 100.182 15.7143 99.8467 17.3095C99.7749 17.7381 99.7271 18.3095 99.6792 19.0714C99.6314 19.7619 99.6314 20.6191 99.6314 21.6667V33.3572V34.0476H98.9377H95.9236H95.2299V33.3572V21.2381C95.2299 18.3809 95.517 15.8809 96.5217 13.7857C97.5503 11.6428 99.3204 9.9762 102.263 8.80953C102.837 8.54762 103.554 8.38095 104.344 8.23809C105.133 8.11905 106.042 8.04761 107.047 8.04761C108.745 8.04761 110.444 8.33333 112.046 9.07143C113.458 9.71428 114.797 10.6667 116.017 12.0476C117.285 10.7143 118.577 9.76189 119.964 9.11903C121.567 8.38094 123.242 8.04761 125.107 8.04761C127.141 8.04761 128.839 8.38093 130.274 9.02379C131.734 9.69046 132.882 10.6905 133.719 12.0238C134.365 13.0714 134.867 14.3809 135.202 15.9286C135.585 17.5 135.752 19.2381 135.752 21.2143ZM156.946 13.4524C155.487 12.4524 153.741 12.0238 151.636 12.0238C150.44 12.0238 149.339 12.2381 148.335 12.6429C147.306 13.0476 146.349 13.6667 145.464 14.4762C144.986 14.9524 144.555 15.4286 144.149 16.0238C143.885 16.4286 143.622 16.881 143.335 17.4048L160.271 17.3333C159.291 15.5714 158.214 14.3095 156.946 13.4524ZM165.845 20.4762V20.6191V21.3095H165.151H142.689C142.881 24.0238 143.766 26.3572 145.297 28C146.828 29.6429 149.028 30.6191 151.875 30.6191C153.98 30.6191 156.061 29.9762 157.664 28.8095C159.147 27.7381 160.247 26.1905 160.63 24.2857L160.75 23.7381H161.3H164.745H165.654L165.391 24.619C164.482 27.5952 162.735 30.1905 160.319 32.0238C158.047 33.7619 155.176 34.7857 151.971 34.7857C148.048 34.7857 144.579 33.3095 142.091 30.9048C139.556 28.4762 138.049 25.0952 138.049 21.3333V21C138.144 17.3095 139.604 14.0476 142.02 11.7143C144.436 9.38095 147.809 7.97619 151.732 7.97619H152.114C155.2 8.04762 157.808 8.80951 159.937 10.1905C162.089 11.5952 163.74 13.6667 164.84 16.3333C165.175 17.1191 165.438 17.8571 165.582 18.5476C165.773 19.1905 165.845 19.8572 165.845 20.4762ZM179.815 9.19048V12.0952V12.7857H179.121H174.935V33.2857V33.9762H174.241H171.132H170.438V33.2857V12.7857H166.252H165.558V12.0952V9.19048V8.49999H166.252H170.438V1.33333V0.642846H171.132H174.241H174.935V1.33333V8.49999H179.121H179.815V9.19048ZM186.632 14.4048C185.843 15.3095 185.532 16.7381 185.532 18.8095V33.381V34.0714H184.838H181.729H181.035V33.381V19.2381C181.035 16.7619 181.346 14.7619 182.279 13.0952C184.145 9.71429 187.637 8.5238 191.297 8.5238H193.976L201.631 27.5238L209.645 8.5238H214.716L200.435 41.5952L200.267 42H199.813H196.512H195.459L195.866 41.0476L199.143 33.5L190.675 12.8095C188.738 12.8571 187.422 13.5 186.632 14.4048ZM238.9 1.33333V33.2857V33.9762H238.206H235.097H234.403V33.2857V19.4048H219.333V33.2857V33.9762H218.639H215.529H214.835V33.2857V1.33333V0.642846H215.529H218.639H219.333V1.33333V15.2143H234.403V1.33333V0.642846H235.097H238.206H238.9V1.33333ZM262.151 14.5714C260.501 12.9524 258.157 11.9762 255.334 11.9762C252.703 11.9762 250.526 13.0238 248.971 14.619C247.272 16.3809 246.292 18.8095 246.292 21.3333C246.292 23.9286 247.272 26.3095 248.971 28.0238C250.574 29.6429 252.846 30.6429 255.597 30.6429C256.961 30.6429 258.204 30.4048 259.305 29.9524C260.405 29.5 261.362 28.8333 262.199 27.9286C263.06 27 263.73 25.9762 264.161 24.881C264.591 23.7857 264.807 22.5714 264.807 21.2857C264.831 18.5952 263.874 16.2381 262.151 14.5714ZM265.381 30.8095C262.941 33.2381 259.544 34.7619 255.621 34.7619C251.698 34.7619 248.253 33.2857 245.765 30.9048C243.254 28.4762 241.747 25.119 241.747 21.3571C241.747 17.6667 243.254 14.2381 245.765 11.7619C248.205 9.35712 251.578 7.83331 255.406 7.83331C257.319 7.83331 259.113 8.16667 260.74 8.80953C262.391 9.45239 263.898 10.4286 265.261 11.7143C266.625 13 267.677 14.4048 268.371 15.9524C269.065 17.5 269.423 19.1905 269.423 21.0238C269.423 24.8095 267.916 28.2857 265.381 30.8095ZM311.907 21.2143V33.381V34.0714H311.214H308.295H307.601V33.381V20.5714C307.601 18.4286 307.41 16.2857 306.501 14.7381C305.616 13.2381 303.965 12.2381 300.999 12.2381C299.157 12.2381 297.602 12.7143 296.43 13.5952C295.282 14.4524 294.493 15.7143 294.182 17.3095C294.086 17.7143 294.038 18.2619 294.014 18.9762C293.99 19.6667 293.966 20.5714 293.966 21.6667V33.3572V34.0476H293.273H290.402H289.708V33.3572V19.8571C289.708 14.7619 287.436 12.2143 282.963 12.2143C281.121 12.2143 279.542 12.6905 278.322 13.5952C277.15 14.4524 276.337 15.7143 276.002 17.3095C275.93 17.7381 275.882 18.3095 275.834 19.0714C275.786 19.7619 275.786 20.6191 275.786 21.6667V33.3572V34.0476H275.093H272.126H271.433V33.3572V21.2381C271.433 18.3809 271.72 15.8809 272.725 13.7857C273.753 11.6428 275.523 9.9762 278.466 8.80953C279.04 8.54762 279.757 8.38095 280.547 8.23809C281.336 8.11905 282.245 8.04761 283.25 8.04761C284.948 8.04761 286.647 8.33333 288.249 9.07143C289.661 9.71428 291 10.6667 292.22 12.0476C293.488 10.7143 294.78 9.76189 296.167 9.11903C297.77 8.38094 299.444 8.04761 301.31 8.04761C303.344 8.04761 305.042 8.38093 306.477 9.02379C307.936 9.69046 309.085 10.6905 309.922 12.0238C310.568 13.0714 311.07 14.3809 311.405 15.9286C311.74 17.5 311.907 19.2381 311.907 21.2143ZM333.125 13.4524C331.666 12.4524 329.92 12.0238 327.815 12.0238C326.619 12.0238 325.518 12.2381 324.514 12.6429C323.485 13.0476 322.528 13.6667 321.643 14.4762C321.165 14.9524 320.734 15.4286 320.327 16.0238C320.064 16.4286 319.801 16.881 319.514 17.4048L336.45 17.3333C335.47 15.5714 334.369 14.3095 333.125 13.4524ZM342 20.4762V20.6191V21.3095H341.306H318.844C319.036 24.0238 319.921 26.3572 321.452 28C322.983 29.6429 325.183 30.6191 328.03 30.6191C330.135 30.6191 332.216 29.9762 333.819 28.8095C335.302 27.7381 336.402 26.1905 336.785 24.2857L336.905 23.7381H337.455H340.9H341.809L341.546 24.619C340.637 27.5952 338.89 30.1905 336.474 32.0238C334.202 33.7619 331.331 34.7857 328.126 34.7857C324.203 34.7857 320.734 33.3095 318.246 30.9048C315.711 28.4762 314.204 25.0952 314.204 21.3333V21C314.299 17.3095 315.759 14.0476 318.175 11.7143C320.591 9.38095 323.964 7.97619 327.887 7.97619H328.269C331.355 8.04762 333.963 8.80951 336.092 10.1905C338.244 11.5952 339.895 13.6667 340.995 16.3333C341.33 17.1191 341.593 17.8571 341.737 18.5476C341.928 19.1905 342 19.8572 342 20.4762Z" fill="white"/>
</svg>
