<svg width="366" height="88" viewBox="0 0 366 88" fill="none" xmlns="http://www.w3.org/2000/svg">
<g clip-path="url(#clip0_757_6691)">
<path d="M286.081 76.4746L284.99 80.8182C284.277 83.7005 282.711 84.4992 279.936 84.4992H276.725C273.969 84.4992 272.8 83.7005 273.513 80.8182L274.604 76.4746C275.317 73.6114 276.902 72.8125 279.658 72.8125H282.869C285.645 72.8125 286.794 73.6114 286.081 76.4746ZM281.007 80.8182L282.097 76.4552C282.234 75.9483 282.017 75.7157 281.482 75.7157H279.578C279.064 75.7157 278.726 75.9483 278.589 76.4552L277.497 80.8182C277.379 81.3249 277.577 81.5783 278.093 81.5783H279.995C280.532 81.5783 280.887 81.3249 281.007 80.8182Z" fill="#2B2A29"/>
<path d="M289.807 87.5017H285.824L289.452 72.9922H293.435L293.257 73.7122C294.248 73.2648 295.377 72.875 296.191 72.875H296.625C299.282 72.875 300.433 73.5968 299.719 76.4391L298.588 80.9382C297.877 83.7628 296.369 84.5023 293.713 84.5023H293.277C292.464 84.5023 291.512 84.1125 290.779 83.665L289.807 87.5017ZM291.433 81.0362C292.286 81.1916 292.841 81.3473 293.396 81.3473H293.673C294.209 81.3473 294.565 81.1339 294.684 80.627L295.654 76.7517C295.793 76.2448 295.557 76.0299 295.02 76.0299H294.744C294.189 76.0299 293.535 76.1856 292.602 76.3428L291.433 81.0362Z" fill="#2B2A29"/>
<path d="M307.053 72.9922L306.914 73.6145C307.805 73.207 308.558 72.875 309.311 72.875H309.727C311.197 72.875 312.227 73.1093 312.681 73.8102C313.791 73.3033 315.078 72.875 315.893 72.875H316.309C318.965 72.875 320.096 73.5954 319.402 76.42L317.419 84.3854H313.437L315.338 76.7311C315.456 76.2451 315.258 76.0111 314.724 76.0111H314.446C314.069 76.0111 313.295 76.1856 312.841 76.2837C312.841 76.3814 312.841 76.4985 312.799 76.6157L310.857 84.3854H306.855L308.756 76.7311C308.877 76.2451 308.679 76.0111 308.142 76.0111H307.864C307.351 76.0111 307.014 76.1856 306.238 76.3222L304.219 84.3854H300.234L303.068 72.9922H307.053Z" fill="#2B2A29"/>
<path d="M330.362 84.0547C330.362 84.0547 327.39 84.483 324.099 84.483C321.345 84.483 320.155 83.7821 320.887 80.8995L321.959 76.6153C322.455 74.6471 324.258 72.9727 327.033 72.9727H329.728C332.484 72.9727 333.455 74.6471 332.96 76.6153L332.148 79.8283C332.089 80.0623 332.089 80.1009 331.891 80.1009H325.052L324.893 80.7632C324.754 81.347 324.913 81.5027 325.486 81.5027H331.038L330.362 84.0547ZM329.214 76.8479C329.412 76.0316 329.114 75.7781 328.402 75.7781H327.251C326.537 75.7781 326.082 76.0121 325.864 76.8479L325.586 77.9386L328.957 77.8809L329.214 76.8479Z" fill="#2B2A29"/>
<path d="M336.33 72.9922H340.314L340.155 73.6931C341.126 73.2648 342.256 72.875 343.068 72.875H343.484C346.141 72.875 347.271 73.5954 346.578 76.42L344.594 84.3854H340.612L342.513 76.7311C342.631 76.2451 342.437 76.0111 341.899 76.0111H341.622C341.067 76.0111 340.415 76.1856 339.482 76.3428L337.478 84.3854H333.496L336.33 72.9922Z" fill="#2B2A29"/>
<path d="M349.411 72.97H350.958L351.513 70.75H355.497L354.942 72.97H357.876L357.103 76.0657H354.19L353 80.8374C352.9 81.2465 353.039 81.4806 353.496 81.4806C353.555 81.4806 355.896 81.4614 355.896 81.4614L355.24 83.954C355.24 83.954 352.684 84.4801 351.197 84.4801C348.52 84.4801 348.502 82.8247 348.956 80.9945L350.184 76.0657H348.641L349.411 72.97Z" fill="#2B2A29"/>
<path d="M59.2707 52.8468C57.0653 56.3996 53.6564 59.0769 49.6437 60.4097C43.2361 62.5494 36.1475 61.0016 31.2661 56.395H21.5477C28.77 68.481 44.5941 72.528 56.8955 65.432C64.2403 61.1956 68.9877 53.673 69.5836 45.3242H18.0508C18.2369 47.9049 18.8246 50.441 19.7911 52.8468H59.2707Z" fill="#2B2A29"/>
<path d="M67.8448 34.2541H28.3635C30.5706 30.701 33.9777 28.0241 37.9907 26.6912C44.3998 24.5514 51.4869 26.0993 56.3698 30.706H66.0865C58.8675 18.6199 43.0418 14.573 30.7404 21.6675C23.3941 25.9036 18.6467 33.4265 18.0508 41.7767H69.5836C69.3973 39.196 68.8114 36.66 67.8448 34.2541Z" fill="#2B2A29"/>
<path d="M2.3381 57.389C10.1172 79.8962 34.9937 91.9472 57.9015 84.3039C80.8093 76.661 93.0747 52.2195 85.2954 29.7123C77.5164 7.205 52.64 -4.8458 29.7322 2.79722C6.82434 10.4402 -5.44095 34.8818 2.3381 57.389ZM43.8161 8.6133C63.4556 8.6133 79.376 24.2554 79.376 43.5514C79.376 62.8459 63.4556 78.488 43.8161 78.488C24.1782 78.488 8.2577 62.8459 8.2577 43.5514C8.2577 24.2554 24.1782 8.6133 43.8161 8.6133Z" fill="#2B2A29"/>
<path d="M270.063 84.3849H266.078L269.686 69.9922H273.671L270.063 84.3849Z" fill="#2B2A29"/>
<path d="M276.16 45.9026L276.176 45.88L276.261 45.7663L276.278 45.7422L276.359 45.6283L276.376 45.6057L276.394 45.5816L276.41 45.5593L276.441 45.5129L276.457 45.4888L276.49 45.4438L276.506 45.4198L276.511 45.4116L276.554 45.349L276.57 45.3267L276.585 45.3026L276.601 45.2785L276.617 45.2562L276.648 45.2081L276.663 45.184L276.676 45.1614L276.692 45.1373L276.707 45.115L276.722 45.0909L276.738 45.0668L276.753 45.0428L276.769 45.0187L276.784 44.9964L276.8 44.9723L276.83 44.9242L276.942 44.7444L276.952 44.7267L276.973 44.6948C277.016 44.6275 277.057 44.5585 277.097 44.4894L277.122 44.4462L277.132 44.4317L277.148 44.4027L277.158 44.3882L277.174 44.3595L277.182 44.3436L277.19 44.3291L277.2 44.3146L277.217 44.2856L277.234 44.2551L277.277 44.1815L277.293 44.1525C277.328 44.0933 277.36 44.0324 277.393 43.973C277.434 43.899 277.475 43.8236 277.515 43.7499L277.517 43.7436L277.523 43.7323C277.6 43.591 277.672 43.4501 277.742 43.3089L277.825 43.1404L278.008 42.7538L278.024 42.717L278.057 42.6465L278.132 42.4795L278.189 42.3449L278.266 42.1668L278.284 42.1268L278.291 42.1106L278.3 42.0882L278.33 42.0146L278.379 41.8925L278.41 41.8139L278.416 41.798L278.425 41.7771L278.485 41.6245L278.527 41.5109L278.57 41.4001L278.593 41.3392L278.635 41.2206L278.663 41.1434L278.709 41.0121L278.79 40.7696L278.818 40.6878L278.864 40.5437L278.895 40.4442L278.911 40.3961L278.996 40.109L279.017 40.035L279.043 39.9405L279.056 39.9005L279.081 39.8074L279.102 39.7303L279.141 39.5876L279.484 38.2562L279.804 37.0228L279.825 36.9393L279.887 36.6925L279.944 36.4469L279.961 36.3796L279.964 36.3651L279.974 36.3187L280 36.2033L280.006 36.1728L280.018 36.1229L280.052 35.9626L280.068 35.8822L280.073 35.855L280.085 35.8037L280.116 35.6465L280.129 35.5679L280.157 35.4107L280.171 35.3339L280.197 35.1781L280.206 35.1317L280.21 35.1027L280.215 35.0659L280.222 35.0259L280.245 34.8733L280.25 34.8397L280.256 34.7965L280.286 34.5703L280.313 34.3473L280.336 34.126L280.349 33.9784L280.362 33.834L280.367 33.7684V33.7635L280.372 33.6898L280.377 33.6191L280.38 33.5469L280.385 33.4764L280.392 33.3352V33.3305L280.395 33.263L280.402 32.984L280.403 32.7769L280.402 32.6406V32.6151C280.4 32.493 280.397 32.3712 280.39 32.2509V32.1932C280.387 32.105 280.38 32.0183 280.372 31.9319V31.9124L280.366 31.8483L280.354 31.7202L280.33 31.5308L280.32 31.4586L280.313 31.4055L280.308 31.3736L280.304 31.3432L280.297 31.3029L280.294 31.2805L280.271 31.1587L280.25 31.0479L280.248 31.0366V31.032L280.235 30.9757L280.224 30.9163L280.209 30.8571L280.196 30.7977L280.181 30.7385L280.135 30.5636L280.126 30.5265L280.119 30.5059L280.068 30.3343L280.033 30.2203L280.003 30.1368L279.993 30.1081L279.933 29.9428L279.912 29.8882L279.843 29.7279L279.797 29.6203L279.748 29.5144L279.672 29.359L279.646 29.3076C279.521 29.0702 279.381 28.8409 279.225 28.6211L279.212 28.6019L279.202 28.589L279.198 28.5826L279.189 28.5698L279.185 28.5634L279.181 28.5586L279.171 28.5457L279.167 28.5393L279.148 28.5136L279.145 28.5088L279.14 28.5024L279.135 28.4944L279.13 28.4896L279.096 28.4447L279.086 28.4335L279.047 28.3821L279.042 28.3773L279.037 28.3709L279.03 28.3645L279.016 28.3452L279.011 28.3404L278.994 28.3228L278.98 28.3035L278.968 28.2923L278.944 28.2602L278.901 28.2121L278.875 28.1832L278.859 28.164L278.802 28.1014L278.7 27.9924L278.64 27.9314L278.571 27.864L278.532 27.8271L278.447 27.7453L278.358 27.6668L278.22 27.5512L278.078 27.4374L277.953 27.3427L277.882 27.2914L277.84 27.2625L277.78 27.2208L277.76 27.2064L277.729 27.1856L277.669 27.147L277.571 27.0829L277.408 26.9834L277.297 26.9193L277.127 26.8246L276.95 26.7332L276.885 26.7011L276.831 26.6739L276.787 26.653L276.771 26.645L276.74 26.6306L276.648 26.5873L276.586 26.56L276.395 26.4782L276.332 26.4525L276.266 26.4253L276.245 26.4172L276.201 26.4012L276.069 26.3499L275.935 26.3018L275.876 26.2809L275.866 26.2777L275.798 26.2536L275.729 26.2312L275.716 26.2264L275.659 26.2071L275.587 26.1862L275.517 26.1638L275.445 26.1414L275.373 26.1205L275.226 26.0788L275.151 26.0579L275.078 26.0387L275.001 26.0194L274.926 26.0002L274.848 25.981L274.735 25.9553L274.614 25.928L274.454 25.8943L274.374 25.8767L274.129 25.8302L273.878 25.7869L273.793 25.774L273.622 25.7467L273.449 25.7227L273.3 25.7035L273.272 25.7002L273.184 25.689L272.913 25.6585L272.822 25.6489L272.631 25.6281H272.614L272.443 25.6136L272.164 25.5928H272.151L272.138 25.5912H272.111L272.085 25.588H272.031L272.018 25.5863H271.478L271.408 25.5848L271.281 25.5799L271.153 25.5767L271.077 25.5751H271.063L270.987 25.5735H270.791L270.686 25.5719H270.673L270.448 25.5703H240.514L240.509 25.5896L234.914 47.1311L234.916 47.096L231.195 61.4196H241.531L244.275 50.8155C246.045 50.8187 254.392 50.8236 256.186 50.8236L261.34 61.4196H273.311C272.629 60.2469 267.346 50.8236 267.346 50.8236C270.926 50.6984 274.219 48.8603 276.16 45.9026ZM269.343 36.6635L269.335 36.8111L269.331 36.8607L269.33 36.8897L269.326 36.912L269.323 36.9634L269.318 37.0164L269.312 37.0692L269.299 37.1768L269.291 37.2313L269.281 37.2954L269.273 37.3436L269.263 37.4062L269.255 37.4575L269.243 37.5152L269.233 37.5747L269.22 37.6338L269.209 37.6933L269.183 37.8151L269.153 37.9404L269.142 37.9868L269.139 38.0027L269.106 38.1312L268.892 38.9525L268.786 39.3631L268.776 39.4017L268.77 39.4321L268.758 39.4722L268.732 39.5684L268.713 39.6357L268.695 39.7015L268.675 39.7674L268.655 39.8315L268.615 39.9582L268.603 39.9933L268.574 40.0832L268.533 40.2053L268.489 40.3239L268.476 40.3639L268.468 40.383L268.424 40.497L268.378 40.6092L268.332 40.7183L268.308 40.7731L268.236 40.9285L268.213 40.9799L268.187 41.0295L268.162 41.0793L268.11 41.1756L268.086 41.2238L268.034 41.3168L268.007 41.3615L267.94 41.4705L267.927 41.4932L267.87 41.5767L267.843 41.6199L267.774 41.7144L267.758 41.7371L267.728 41.7753L267.64 41.8861L267.611 41.9215L267.578 41.9583L267.549 41.9905L267.519 42.0242L267.488 42.0578L267.394 42.1509L267.363 42.1796L267.343 42.1973L267.296 42.2373L267.265 42.2663L267.23 42.2918L267.163 42.3449L267.131 42.369L267.075 42.409L267.07 42.4122L267.049 42.4267L267.01 42.4522L266.962 42.4829L266.874 42.5375L266.783 42.5888L266.626 42.6706L266.6 42.6816L266.582 42.6897L266.54 42.7106L266.517 42.7202L266.509 42.7233L266.443 42.7506L266.419 42.7619H266.416L266.298 42.8083L266.216 42.8388L266.155 42.8596L266.071 42.8869L265.919 42.9304L265.911 42.9336L265.88 42.9414L265.843 42.9513L265.795 42.9623L265.746 42.9754L265.643 42.9977L265.606 43.0073L265.521 43.0235L265.397 43.0458L265.354 43.0539H265.35L265.27 43.0667L265.19 43.078L265.181 43.0795L265.137 43.0858H265.132L265.093 43.0908L265.005 43.1003L264.914 43.1117L264.868 43.1148L264.821 43.1195L264.775 43.1244H264.631L264.194 43.1276H263.769L263.479 43.1293H263.474L261.538 43.1372H260.78L260.628 43.1389H259.858L259.399 43.1404H258.625L258.469 43.1421H256.418L256.056 43.1807H246.251L248.28 35.3452C248.316 35.1958 248.373 35.0531 248.451 34.9215C248.469 34.891 248.489 34.8623 248.51 34.8333L248.523 34.8174L248.549 34.7869L248.59 34.742C248.608 34.7243 248.628 34.7066 248.647 34.6906L248.691 34.6553L248.708 34.6442L248.724 34.6344L248.739 34.6248L248.773 34.6057L248.789 34.5961L248.805 34.588L248.823 34.5799L248.84 34.5735L248.858 34.5656L248.874 34.559L248.892 34.5526L248.911 34.5462L248.929 34.5416L248.949 34.5366L248.967 34.5317L248.987 34.5271L249.006 34.5239L249.026 34.519L249.047 34.5175L249.066 34.5143L249.088 34.5108L249.107 34.5094L249.129 34.5076H266.83L266.863 34.5108H266.878L266.91 34.5143H266.927L266.958 34.5175L266.974 34.519H266.99L267.021 34.5221L267.052 34.5239L267.114 34.5303L267.235 34.5448L267.279 34.5494L267.292 34.5526L267.336 34.5575L267.349 34.559L267.363 34.5622L267.389 34.5656L267.402 34.5688L267.428 34.572L267.441 34.5752L267.48 34.5799L267.493 34.583L267.506 34.5848L267.518 34.588L267.531 34.5894L267.544 34.5929L267.557 34.5944L267.568 34.5975L267.581 34.5993L267.594 34.6025L267.607 34.6039L267.619 34.6071L267.669 34.617L267.73 34.6312L267.79 34.6442L267.839 34.657L267.851 34.6584L267.896 34.6715L267.919 34.6761L267.976 34.6921L267.986 34.6956L268.009 34.7019L268.019 34.7051L268.03 34.7083L268.04 34.7115L268.052 34.7147L268.072 34.7228L268.115 34.737L268.154 34.7515L268.231 34.7805L268.27 34.7947L268.412 34.8591L268.513 34.9119L268.539 34.9281L268.608 34.9682L268.675 35.0131L268.696 35.0273L268.724 35.0482L268.752 35.0708L268.804 35.1126L268.83 35.1349L268.85 35.1526L268.879 35.1799L268.895 35.1976L268.902 35.2022L268.946 35.2503L268.967 35.2744L268.972 35.2793L268.988 35.3002L269.008 35.3257L269.029 35.3515L269.065 35.4061L269.067 35.4093L269.082 35.4333L269.093 35.451L269.101 35.462L269.109 35.4783L269.117 35.491L269.132 35.5215L269.148 35.5519L269.163 35.5824L269.171 35.6018L269.178 35.6146L269.191 35.6465L269.217 35.714L269.228 35.7491L269.261 35.855L269.269 35.8921L269.295 36.0075L269.302 36.0444L269.315 36.1261L269.33 36.2416V36.2514L269.34 36.3813V36.4277L269.343 36.5191V36.6635Z" fill="#2B2A29"/>
<path d="M143.163 44.191C143.148 44.1557 143.133 44.1203 143.119 44.0866L143.112 44.0739L143.102 44.0513L143.097 44.0385L143.092 44.0272L143.086 44.0162L143.076 43.9936L143.07 43.9825L143.055 43.9486L143.053 43.9454L143.048 43.9376L143.044 43.9245L143.037 43.9135L143.03 43.9037L143.026 43.8909L143.019 43.8799L143.003 43.8477L142.999 43.8428L142.996 43.8364L142.99 43.8251L142.985 43.814L142.981 43.8091L142.978 43.8027L142.972 43.7914L142.967 43.7804L142.96 43.7705L142.947 43.7482L142.944 43.7418L142.941 43.7369L142.936 43.7259L142.929 43.716L142.924 43.7096L142.923 43.705L142.916 43.6937L142.91 43.6841L142.905 43.676L142.903 43.6728L142.897 43.6615L142.89 43.6519L142.885 43.6438L142.884 43.6406L142.877 43.6296L142.87 43.6197L142.866 43.6102L142.825 43.5461L142.782 43.4834C142.756 43.4466 142.732 43.4098 142.704 43.373L142.684 43.3471L142.665 43.3199L142.643 43.2926L142.622 43.2671L142.601 43.2398L142.516 43.1372L142.425 43.0345L142.402 43.0105C142.299 42.9014 142.191 42.797 142.077 42.6975C142.033 42.659 141.987 42.6221 141.94 42.5853C141.798 42.4699 141.649 42.3655 141.496 42.2678L141.432 42.2277L141.336 42.1697C141.247 42.117 141.158 42.0671 141.067 42.0192L141.062 42.0175L141.057 42.0143L141.027 41.9998L141.016 41.9934L141 41.9853L140.978 41.9743L140.97 41.9711L140.965 41.9679L140.947 41.958L140.934 41.9517L140.926 41.9485L140.825 41.8989L140.698 41.8412L140.524 41.7672L140.462 41.7417L140.436 41.7304L140.402 41.7159L140.317 41.6823L140.284 41.6695L140.255 41.6599L139.973 41.5573L139.912 41.5364L139.728 41.4755L139.68 41.461L139.626 41.4447L139.476 41.4001L139.421 41.3838L139.328 41.3566L139.263 41.3406L139.21 41.3261L139.103 41.2974L138.993 41.2702L138.882 41.2444L138.827 41.2299L138.712 41.2043L138.689 41.1994L138.655 41.1916L138.613 41.1835L138.598 41.1803L138.585 41.1771L138.423 41.1417L138.353 41.1289L138.245 41.1081L138.139 41.0872L138.125 41.084L138.066 41.0727L137.943 41.0518L137.927 41.0486L137.88 41.0408L137.819 41.0309L137.757 41.0199L137.746 41.0182L137.63 40.999L137.568 40.9909L137.504 40.9796L137.44 40.97L137.31 40.9523L115.385 37.8424L115.356 37.8392L115.267 37.8247L115.155 37.8038L115.099 37.7942L115.047 37.7829L115.021 37.7783L114.97 37.7652L114.946 37.7606L114.872 37.7429L114.848 37.7365H114.843L114.827 37.7301L114.784 37.7188L114.781 37.7171L114.76 37.7124L114.737 37.7061L114.694 37.6916L114.632 37.6724L114.613 37.6658L114.593 37.6579L114.564 37.6484L114.556 37.6452L114.538 37.6385L114.518 37.6307L114.5 37.6243L114.482 37.6162L114.466 37.608L114.459 37.6066L114.45 37.6002L114.386 37.5698L114.381 37.568L114.355 37.5553L114.326 37.5376L114.299 37.5216L114.291 37.5167L114.286 37.5135L114.262 37.4958L114.214 37.4622L114.205 37.4558L114.193 37.4445L114.185 37.4381L114.18 37.4349L114.174 37.4268L114.164 37.419L114.159 37.4126L114.148 37.3995C114.1 37.3482 114.064 37.2873 114.046 37.2215L114.033 37.1751L114.03 37.1606L114.017 37.0933L114.014 37.0579L114.012 37.0388L114.01 37.0211L114.007 36.9825V36.9216C114.007 36.888 114.009 36.8511 114.01 36.8126L114.012 36.79C114.014 36.7531 114.017 36.7131 114.022 36.6713L114.028 36.6218C114.054 36.4373 114.092 36.2543 114.139 36.0731L114.368 35.1877L114.381 35.1346L114.397 35.0819L114.404 35.0595L114.407 35.0514L114.412 35.0355L114.419 35.0096L114.425 34.992L114.427 34.9856L114.435 34.9615L114.453 34.9134L114.469 34.8652L114.475 34.8475L114.487 34.8188L114.503 34.7739L114.513 34.7498L114.542 34.6825L114.546 34.6744L114.552 34.6599L114.562 34.639L114.584 34.5958L114.598 34.5636L114.603 34.5541L114.637 34.4917L114.683 34.4114L114.694 34.3922L114.719 34.3537L114.73 34.3345L114.768 34.2797L114.846 34.1739L114.861 34.1579L114.874 34.1402L114.88 34.1324L114.889 34.1243L114.903 34.1066L114.916 34.0906L114.975 34.0265L114.991 34.012L115.006 33.9975L115.013 33.9894L115.021 33.9816L115.068 33.9381L115.093 33.9158L115.101 33.9094L115.111 33.8998L115.116 33.8966L115.119 33.8949L115.12 33.8917L115.124 33.89L115.125 33.8868L115.129 33.8853L115.133 33.8821L115.135 33.8789L115.138 33.8772L115.143 33.8726L115.147 33.8708L115.151 33.8659L115.155 33.8644L115.163 33.8563L115.169 33.8531L115.171 33.8499L115.174 33.8485L115.178 33.8467L115.181 33.8436L115.186 33.8404L115.189 33.8372L115.192 33.8354L115.197 33.8308L115.2 33.8291L115.207 33.8244L115.21 33.8227L115.217 33.818L115.223 33.8146L115.23 33.8099L115.238 33.805L115.241 33.8018L115.258 33.794L115.261 33.7908L115.264 33.789L115.287 33.7763L115.325 33.7537L115.331 33.7505L115.344 33.7426L115.357 33.736L115.365 33.7313L115.383 33.7218L115.406 33.7119L115.427 33.6959L115.432 33.6928L115.475 33.6736L115.496 33.6655L115.519 33.6559L115.584 33.6319L115.607 33.6223L115.615 33.6191L115.631 33.6142L115.645 33.6095L115.654 33.606L115.677 33.5982L115.702 33.5918L115.774 33.571L115.824 33.5565L115.901 33.5388L115.953 33.5292L116.061 33.5101L116.089 33.5069L116.118 33.5019L116.146 33.497L116.164 33.4956L116.174 33.4938L116.291 33.4828L116.321 33.4811L116.352 33.4779L116.381 33.4761L116.443 33.4729H116.474L116.49 33.4715H116.505L116.568 33.4697H146.568L148.199 27.1709C148.212 27.1196 148.223 27.0699 148.233 27.0218L148.238 26.9961L148.246 26.9576L148.251 26.9191L148.255 26.9063L148.256 26.8951L148.259 26.8694L148.261 26.8582L148.264 26.8325L148.266 26.8213L148.268 26.8084V26.7972L148.269 26.786L148.271 26.7732V26.7619L148.272 26.7491L148.274 26.7379V26.4411L148.271 26.4219V26.4123L148.269 26.4011V26.3866L148.268 26.377V26.3625L148.263 26.3337L148.256 26.3048L148.255 26.2952L148.253 26.2904L148.25 26.2775L148.248 26.2679L148.245 26.2599L148.243 26.2551L148.237 26.2326L148.222 26.1845L148.219 26.1765C148.21 26.1556 148.202 26.1348 148.192 26.1155C148.178 26.0851 148.163 26.0578 148.147 26.0305L148.143 26.0241L148.14 26.0177L148.137 26.0145L148.134 26.0081L148.127 25.9984L148.124 25.9952L148.119 25.9888L148.117 25.9856L148.08 25.9375L148.07 25.9263L148.063 25.9182L148.052 25.907L148.046 25.899L148.021 25.8749L148.016 25.8717L148.013 25.8685L148.01 25.8637L148.006 25.8621L147.998 25.8541L147.993 25.8509L147.987 25.8445L147.982 25.8429L147.979 25.8396L147.974 25.8364L147.97 25.8332L147.966 25.83L147.962 25.8268L147.949 25.8172L147.944 25.814L147.936 25.8076L147.926 25.8028L147.921 25.7995L147.918 25.7963L147.913 25.7931L147.908 25.7915L147.905 25.7883L147.89 25.7787L147.886 25.7771L147.882 25.7739L147.877 25.7707L147.872 25.7691L147.863 25.7626L147.858 25.7611L147.848 25.7546L147.843 25.753L147.833 25.7466L147.828 25.745L147.822 25.7418L147.817 25.7402L147.812 25.737L147.804 25.7338L147.794 25.729L147.784 25.7258L147.776 25.7209L147.766 25.7177L147.757 25.7129L147.737 25.7065L147.727 25.7017L147.708 25.6953L147.699 25.6921L147.688 25.6873L147.659 25.6776L147.647 25.6744L147.637 25.6712L147.628 25.6696L147.616 25.6664L147.606 25.6632L147.595 25.66L147.585 25.6568L147.574 25.6552L147.551 25.6488L147.541 25.6472L147.53 25.644L147.518 25.6424L147.507 25.6391L147.484 25.6359L147.472 25.6327L147.461 25.6311L147.448 25.6295L147.436 25.6279L147.425 25.6247L147.412 25.6231L147.401 25.6215L147.388 25.6199L147.376 25.6183L147.35 25.6151L147.339 25.6135L147.325 25.6119H147.312L147.299 25.6103H147.286L147.26 25.6071H147.247L147.234 25.6055H114.043L114.004 25.6071H113.965L113.924 25.6087H113.885L113.806 25.6119L113.765 25.6135L113.57 25.6215L113.532 25.6231L113.414 25.6279L113.375 25.6327L113.336 25.6343L113.299 25.6375L113.259 25.6391L113.222 25.6408L113.184 25.644L113.145 25.6455L113.107 25.6488L113.07 25.6504L113.032 25.6536L112.993 25.6568L112.956 25.66L112.918 25.6616L112.876 25.6648L112.725 25.6776L112.69 25.6808L112.652 25.6841L112.614 25.6889L112.578 25.6921L112.541 25.6953L112.505 25.7001L112.467 25.7033L112.432 25.7081L112.396 25.7113L112.322 25.7194C112.237 25.729 112.153 25.7402 112.069 25.7514C111.891 25.7755 111.717 25.8012 111.545 25.8284L111.496 25.8364L111.351 25.8621L111.302 25.8717L111.279 25.8765L111.255 25.8797L111.23 25.8846L111.207 25.8894L111.158 25.899L111.135 25.9038L111.111 25.9086L111.088 25.9134L111.039 25.923L110.993 25.9327L110.969 25.9375L110.946 25.9439L110.921 25.9487L110.853 25.9632L110.828 25.968L110.763 25.9952L110.741 26.0016L110.716 26.0065L110.693 26.0113L110.67 26.0177L110.647 26.0225L110.626 26.0289L110.581 26.0385L110.558 26.045L110.535 26.0498L110.514 26.0562L110.491 26.0626L110.262 26.122L110.249 26.1251L110.234 26.1284L110.221 26.1332L110.207 26.1364L110.192 26.1412L110.163 26.1476L110.148 26.1524L110.135 26.1573L110.12 26.1604L110.105 26.1653L110.091 26.1685L110.061 26.1781L110.048 26.1813L110.034 26.1861L110.019 26.1893L109.989 26.1989L109.976 26.2021L109.947 26.2118L109.932 26.215L109.903 26.2246L109.89 26.2294L109.875 26.2326L109.846 26.2422L109.831 26.2455L109.818 26.2503L109.789 26.2599L109.774 26.2631L109.759 26.2679L109.746 26.2727L109.717 26.2824L109.704 26.2871L109.674 26.2968L109.661 26.3L109.632 26.3096L109.619 26.3144L109.604 26.3192L109.591 26.3241L109.562 26.3337L109.549 26.3385L109.519 26.3481L109.506 26.3529L109.491 26.3593L109.478 26.3641L109.464 26.369L109.451 26.3738L109.436 26.3786L109.423 26.3834L109.408 26.3882L109.395 26.3946L109.38 26.3994L109.367 26.4042L109.353 26.4091L109.34 26.4139L109.119 26.4989L109.06 26.5229L109.011 26.5422L108.905 26.5855L108.798 26.632L108.589 26.725L108.558 26.7395L108.541 26.7475L108.535 26.7523L108.527 26.7555L108.488 26.7748L108.473 26.7812L108.465 26.786L108.457 26.7892L108.45 26.7924L108.442 26.7972L108.426 26.8036L108.419 26.8084L108.411 26.8117L108.404 26.8149L108.396 26.8197L108.373 26.8309L108.365 26.8341L108.357 26.8389L108.35 26.8421L108.342 26.847L108.336 26.8501L108.328 26.8534L108.319 26.8582L108.313 26.8614L108.305 26.8662L108.297 26.8694L108.29 26.8742L108.282 26.8774L108.275 26.8806L108.267 26.8854L108.259 26.8887L108.252 26.8935L108.244 26.8967L108.238 26.9015L108.23 26.9047L108.221 26.9095L108.215 26.9143L108.176 26.9336L108.169 26.9384L108.153 26.9464L108.146 26.9512L108.138 26.9544L108.13 26.9592L108.123 26.9624L108.115 26.9672L108.107 26.9705L108.101 26.9753L108.003 27.0298L107.957 27.0555L107.952 27.0571L107.949 27.0603L107.944 27.0635L107.931 27.0699L107.926 27.0731L107.923 27.0763L107.918 27.0779L107.913 27.0811L107.91 27.0827L107.905 27.0859L107.9 27.0875L107.897 27.0908L107.892 27.094L107.887 27.0956L107.883 27.0988L107.879 27.1004L107.874 27.1036L107.87 27.1052L107.861 27.1116L107.857 27.1132L107.852 27.1164L107.848 27.118L107.844 27.1212L107.839 27.1228L107.834 27.1261L107.831 27.1292L107.826 27.1309L107.821 27.1341L107.818 27.1357L107.808 27.1421L107.805 27.1437L107.8 27.1469L107.795 27.1485L107.792 27.1517L107.787 27.1533L107.782 27.1565L107.779 27.1597L107.774 27.1613L107.769 27.1645L107.766 27.1661L107.756 27.1726L107.753 27.1758L107.748 27.1774L107.745 27.1806L107.74 27.1838L107.735 27.1854L107.73 27.1886L107.727 27.1902L107.722 27.1934L107.537 27.3121L107.498 27.3378C107.461 27.3618 107.425 27.3859 107.389 27.41L107.32 27.4565L107.302 27.4709L107.273 27.4901L107.263 27.4982L107.234 27.5174L107.225 27.5254L107.196 27.5447L107.188 27.5511L107.178 27.5591L107.168 27.5655L107.16 27.572L107.15 27.58L107.132 27.5928L107.123 27.5992L107.113 27.6073L107.105 27.6137L107.095 27.6201L107.087 27.6281L107.067 27.6409L107.059 27.649C107.015 27.6826 106.972 27.7163 106.93 27.75C106.878 27.7917 106.827 27.8334 106.775 27.8767L106.772 27.8799L106.741 27.904L106.734 27.9104L106.729 27.9136L106.72 27.9232L106.715 27.9264L106.711 27.9296L106.703 27.9345L106.69 27.9473L106.687 27.9489L106.525 28.09L106.499 28.1157L106.484 28.1269L106.471 28.1398L106.458 28.151L106.445 28.1638L106.431 28.1767L106.417 28.1879L106.404 28.2007L106.351 28.252L106.337 28.2649L106.324 28.2761C106.28 28.3178 106.236 28.3611 106.194 28.4028C106.128 28.4686 106.063 28.5328 106.001 28.5985L105.924 28.6787L105.913 28.6915L105.9 28.7044L105.887 28.7188L105.875 28.7316L105.849 28.7573L105.838 28.7717L105.825 28.7862L105.813 28.799L105.8 28.8119L105.789 28.8263L105.776 28.8391L105.764 28.8536L105.753 28.8664L105.74 28.8808L105.704 28.9225L105.634 29.0027L105.629 29.0075L105.626 29.014L105.616 29.0236L105.613 29.0284L105.603 29.038L105.599 29.0428L105.595 29.0492L105.59 29.054L105.586 29.0588L105.577 29.0685L105.573 29.0733L105.568 29.0781L105.565 29.0845L105.555 29.0941L105.552 29.099L105.547 29.1038L105.544 29.1086L105.539 29.115L105.536 29.1198L105.531 29.1246L105.528 29.1294L105.523 29.1342L105.519 29.1391L105.515 29.1439L105.511 29.1503L105.506 29.1551L105.5 29.1647L105.511 29.1856L105.508 29.1904L105.503 29.1952L105.5 29.2L105.495 29.2048L105.492 29.2096L105.487 29.2161L105.484 29.2209L105.479 29.2257L105.472 29.2353L105.467 29.2401L105.464 29.2449L105.459 29.2513L105.453 29.2609L105.448 29.2658L105.441 29.2754L105.436 29.2802L105.433 29.2866L105.428 29.2914L105.422 29.3011L105.417 29.3059L105.413 29.3107L105.408 29.3171L105.405 29.3219L105.4 29.3267L105.397 29.3315L105.392 29.3379L105.389 29.3428L105.363 29.3748L105.322 29.4278L105.299 29.4582L105.258 29.5127L105.157 29.6525L105.129 29.6893L105.088 29.7485L105.005 29.8656L104.943 29.9555L104.765 30.2331L104.728 30.294L104.708 30.3261L104.689 30.3598L104.651 30.4207L104.486 30.7092L104.465 30.7464L104.432 30.8073L104.29 31.0784L104.266 31.1263L104.225 31.2083L104.078 31.5163L104.031 31.6222L103.893 31.9412L103.849 32.0502L103.765 32.2686L103.722 32.3791L103.652 32.5765L103.642 32.6038L103.631 32.6374L103.603 32.7175L103.565 32.8315L103.536 32.9196L103.526 32.9469L103.518 32.9741L103.49 33.0623L103.454 33.1795L103.384 33.4138L103.351 33.5341L103.288 33.7745L102.638 36.2833L102.622 36.3457L102.607 36.4069L102.591 36.4678L102.576 36.5269L102.563 36.5864L102.548 36.6473C102.41 37.2168 102.31 37.7942 102.248 38.3765L102.243 38.4279L102.238 38.4775C102.233 38.5288 102.23 38.5801 102.225 38.63L102.222 38.6813L102.215 38.7805L102.214 38.8287L102.21 38.8785L102.209 38.9281L102.205 39.0244L102.204 39.1207V39.4478L102.209 39.5827L102.212 39.6276L102.214 39.6726V39.7975L102.215 39.8135V39.8843L102.217 39.9002V39.9852L102.219 39.9916V39.9997L102.22 40.0078V40.0301L102.222 40.0382V40.0461L102.225 40.0623V40.0768L102.228 40.0846V40.091L102.232 40.1073V40.1136L102.235 40.1296L102.24 40.1664C102.333 40.861 102.601 41.5201 103.023 42.0833C103.595 42.7906 104.347 43.3326 105.206 43.6569C106.352 44.0994 107.55 44.3978 108.773 44.5437L129.996 47.2497C130.618 47.3155 131.005 47.4709 131.159 47.7166C131.32 48.1382 131.315 48.6019 131.149 49.0204L130.894 50.0053C130.78 50.6244 130.483 51.1989 130.04 51.6527C129.495 52.0152 128.839 52.1803 128.184 52.1211H98.9665L96.5586 61.4194H129.147C130.909 61.4498 132.667 61.2494 134.376 60.8292C135.736 60.4908 137.018 59.8972 138.149 59.0823C139.187 58.3109 140.054 57.3405 140.698 56.2289C141.398 55.002 141.925 53.6851 142.263 52.3183L143.001 49.4632C143.321 48.3244 143.489 47.1502 143.504 45.9696C143.505 45.3635 143.391 44.7621 143.171 44.1957L143.163 44.191Z" fill="#2B2A29"/>
<path d="M214.363 70.75H222.887C225.643 70.75 226.673 72.4648 226.198 74.4118L224.632 80.7028C224.116 82.6693 222.232 84.3838 219.478 84.3838H210.953L214.363 70.75ZM221.896 75.1705C222.094 74.3718 221.796 73.982 220.944 73.982H217.674L215.87 81.1503H219.14C219.992 81.1503 220.508 80.7605 220.706 79.9616L221.896 75.1705Z" fill="#2B2A29"/>
<path d="M236.547 84.0547C236.547 84.0547 233.574 84.483 230.283 84.483C227.527 84.483 226.339 83.7821 227.072 80.8998L228.142 76.6153C228.637 74.6474 230.441 72.9727 233.217 72.9727H235.912C238.668 72.9727 239.639 74.6474 239.144 76.6153L238.331 79.8283C238.271 80.0623 238.271 80.1009 238.073 80.1009H231.235L231.076 80.7632C230.938 81.3473 231.096 81.5027 231.67 81.5027H237.221L236.547 84.0547ZM235.397 76.8479C235.595 76.0316 235.298 75.7781 234.585 75.7781H233.435C232.72 75.7781 232.265 76.0124 232.048 76.8479L231.77 77.9386L235.14 77.8809L235.397 76.8479Z" fill="#2B2A29"/>
<path d="M247.35 84.4407H241.819C241.503 84.4407 241.405 84.3621 241.383 83.9915C241.325 82.6491 241.027 72.9883 241.027 72.9883H245.308L245.171 81.1495H245.666L249.59 72.9883H253.892C253.892 72.9883 248.758 82.6491 248.044 83.9915C247.845 84.3621 247.669 84.4407 247.35 84.4407Z" fill="#2B2A29"/>
<path d="M262.91 84.0547C262.91 84.0547 259.937 84.483 256.646 84.483C253.89 84.483 252.702 83.7821 253.435 80.8998L254.506 76.6153C255 74.6474 256.804 72.9727 259.58 72.9727H262.275C265.031 72.9727 266.002 74.6474 265.508 76.6153L264.695 79.8283C264.634 80.0623 264.634 80.1009 264.437 80.1009H257.598L257.44 80.7632C257.301 81.3473 257.459 81.5027 258.034 81.5027H263.584L262.91 84.0547ZM261.761 76.8479C261.959 76.0316 261.661 75.7781 260.948 75.7781H259.799C259.084 75.7781 258.628 76.0124 258.411 76.8479L258.133 77.9386L261.503 77.8809L261.761 76.8479Z" fill="#2B2A29"/>
<path d="M330.62 25.6016H317.299L329.973 42.477L329.197 43.0994L317.96 52.1204H323.56L311.992 61.4219H319.336L334.894 48.922L343.574 61.4219H357.131L343.814 42.4292L365.667 25.6016H352.745L338.415 36.6724L330.62 25.6016Z" fill="#2B2A29"/>
<path d="M227.023 60.0399L230.135 48.0197L230.214 48.0165L230.452 47.094L232.098 40.7358H212.62L210.736 48.0165H220.156L219.248 51.5226C219.202 51.8692 218.897 52.1258 218.541 52.1145H201.192C199.76 52.3152 198.317 51.8419 197.298 50.8347C196.675 49.5321 196.609 48.0389 197.119 46.6883L197.212 46.3081L197.318 45.8975L197.54 45.0443L198.841 40.0093L198.867 39.9116L198.874 39.889L198.875 39.8777L198.879 39.8681L198.885 39.8458L198.887 39.8345L198.89 39.8232L198.893 39.8136L198.9 39.7913L198.901 39.7814L198.908 39.7591L198.911 39.7495L198.913 39.7382L198.919 39.7159L198.923 39.7063L198.929 39.6837L198.934 39.6628L198.937 39.6515L198.941 39.6419L198.944 39.6309L198.946 39.621L198.949 39.61L198.952 39.6001L198.955 39.5891L198.959 39.5796L198.96 39.5682L198.964 39.5569L198.97 39.5378L198.973 39.5265L198.977 39.5169L198.983 39.496L198.985 39.4847L198.988 39.4752L198.991 39.4638L198.995 39.4543L198.998 39.443L199.001 39.4334L199.003 39.4238L199.006 39.4125L199.013 39.3934L199.016 39.3821L199.021 39.3612L199.024 39.3516L199.03 39.3307L199.06 39.2362L199.163 38.9169L199.169 38.8946L199.177 38.872L199.184 38.8496L199.192 38.8273L199.223 38.7388L199.3 38.5225L199.333 38.439L199.339 38.4213L199.347 38.3972L199.38 38.3123L199.413 38.2305L199.479 38.0684L199.512 37.9883L199.543 37.9176L199.546 37.9112L199.563 37.8729L199.581 37.8343L199.592 37.8053L199.597 37.7975L199.6 37.7894L199.615 37.7589L199.631 37.7204L199.635 37.7122L199.649 37.6835L199.664 37.6513L199.666 37.6467L199.667 37.6435L199.685 37.6099L199.702 37.5728L199.737 37.4991L199.791 37.3915L199.795 37.3869L199.811 37.3579L199.829 37.3225L199.84 37.2984L199.847 37.2888L199.865 37.2538L199.883 37.2198L199.893 37.2024L199.902 37.1862L199.92 37.1525L199.96 37.0867L199.997 37.0194L200.036 36.9553L200.044 36.9394L200.056 36.9232L200.095 36.8591L200.102 36.8495L200.116 36.8269L200.133 36.8014L200.136 36.7964L200.155 36.7645L200.237 36.6424L200.24 36.6378L200.258 36.612L200.278 36.5815L200.299 36.5528L200.341 36.4934L200.407 36.4067L200.493 36.2944L200.516 36.2672L200.521 36.2622L200.539 36.2399L200.56 36.2127L200.583 36.1854L200.604 36.1596L200.627 36.1341L200.634 36.1259L200.65 36.1068L200.673 36.0827L200.697 36.0555L200.736 36.0123L200.743 36.0041L200.79 35.9528L200.838 35.9047L200.861 35.8806L200.957 35.7861L200.981 35.7634L201.032 35.717L201.055 35.693L201.081 35.6721L201.13 35.6271L201.156 35.6063L201.179 35.5854L201.182 35.5839L201.231 35.5422L201.259 35.5213L201.362 35.4395L201.416 35.3995L201.496 35.3418L201.577 35.2855L201.605 35.2678L201.633 35.2487L201.716 35.1956L201.724 35.191L201.744 35.1782L201.829 35.1283L201.858 35.1107L201.886 35.0947L201.943 35.0643L202.003 35.0306L202.033 35.0161L202.091 34.9857L202.18 34.9422L202.211 34.928L202.227 34.9198L202.242 34.9135L202.291 34.8908L202.302 34.8862L202.333 34.8717L202.361 34.8604L202.364 34.8589L202.426 34.8331L202.459 34.8204L202.488 34.8076L202.5 34.8027L202.521 34.7963L202.537 34.7882L202.553 34.7818L202.593 34.7676L202.617 34.7595L202.746 34.7131L202.908 34.66L202.914 34.6583L202.958 34.644L202.965 34.6423L202.999 34.631L203.011 34.6278L203.02 34.6246H203.025L203.035 34.6214L203.047 34.6182L203.076 34.6087H203.081L203.086 34.6069L203.092 34.6055L203.122 34.5959H203.127L203.141 34.591H203.146L203.161 34.5863H203.166L203.208 34.575L203.26 34.5623L203.34 34.5446L203.347 34.5428L203.383 34.535L203.447 34.5237L203.466 34.5188L203.491 34.5141L203.546 34.5028L203.667 34.4805L203.703 34.4756L203.718 34.4724L203.778 34.4611L203.892 34.4434L204.008 34.4274L204.052 34.421L204.166 34.4065L204.206 34.4019L204.233 34.3984L204.286 34.392L204.326 34.3888L204.349 34.3857L204.367 34.3842L204.405 34.3793H204.408L204.49 34.3729L204.532 34.368H204.535L204.614 34.3616L204.645 34.3584L204.7 34.3552L204.744 34.3503L204.784 34.3488L205.001 34.3361L205.087 34.3311C205.309 34.323 205.538 34.3166 205.773 34.3166H223.278C223.314 34.3166 223.349 34.3198 223.385 34.3248L223.391 34.3265H223.437L223.442 34.3297H223.445L223.452 34.3329L223.409 34.3361H223.412L223.421 34.3407H223.424L223.432 34.3456L223.437 34.3471L223.443 34.3503L223.448 34.3538L223.452 34.3569L223.478 34.3712L223.499 34.3888L223.512 34.4019L223.517 34.4083L223.523 34.4161L223.533 34.4306L223.538 34.4387L223.559 34.4805L223.561 34.4869L223.563 34.4901L223.566 34.4996L223.567 34.5092L223.576 34.5396L223.577 34.551V34.5605L223.579 34.5733V34.631L223.577 34.6423V34.6617L223.576 34.6681V34.6809L223.574 34.6954L223.571 34.7081L223.569 34.7226L223.564 34.7513L223.559 34.7658L223.558 34.7786V34.7818L223.553 34.7963L222.662 38.24L233.56 34.7963L235.56 27.0715L235.578 27.0025L235.581 26.9833L235.585 26.9737L235.586 26.964L235.588 26.956L235.591 26.9368L235.599 26.8999C235.617 26.8069 235.63 26.7122 235.635 26.6192L235.637 26.5935V26.4026L235.635 26.393V26.2888L235.634 26.2807L235.63 26.2663L235.629 26.2519L235.627 26.2471C235.621 26.2214 235.614 26.1957 235.606 26.1717L235.581 26.1123L235.572 26.0883L235.545 26.0369V26.0241L235.544 26.0209V26.0145L235.541 26.0097L235.539 26.0065L235.534 26.0016L235.532 25.9984L235.526 25.9888L235.524 25.9856L235.521 25.9824V25.9792L235.519 25.9744L235.516 25.9712L235.514 25.968L235.496 25.9439L235.459 25.9022L235.439 25.8813L235.412 25.8557L235.399 25.8412L235.392 25.8364L235.387 25.8332L235.381 25.8284L235.376 25.8236L235.372 25.822L235.369 25.8188L235.366 25.8172L235.363 25.8124L235.359 25.8108L235.356 25.8076L235.353 25.8059L235.35 25.8028L235.346 25.8011L235.341 25.7979L235.338 25.7947L235.335 25.7931L235.33 25.7899L235.325 25.7867L235.32 25.7835L235.315 25.7819L235.31 25.7787L235.304 25.7739L235.299 25.7707L235.294 25.7675L235.289 25.7659L235.284 25.7626L235.279 25.7594L235.274 25.7562L235.27 25.7546L235.265 25.7514L235.26 25.7482L235.255 25.745L235.25 25.7434L235.193 25.7161L235.132 25.6905C235.108 25.6808 235.085 25.6744 235.059 25.6664L235.025 25.6568L235.008 25.6536L235 25.6504L234.99 25.6488L234.974 25.6455L234.966 25.6424L234.956 25.6407L234.948 25.6391L234.938 25.6375L234.922 25.6343L234.902 25.6311L234.894 25.6295L234.884 25.6279L234.876 25.6263L234.847 25.6215L234.838 25.6199L234.829 25.6183H234.819L234.8 25.6151L234.791 25.6135H234.781L234.772 25.6119L234.752 25.6103L234.731 25.6087H234.711L234.69 25.6071L234.671 25.6055H206.338L206.263 25.6087H206.227L206.181 25.6151H206.145L206.109 25.6167L206.072 25.6183L206.036 25.6199H205.998L205.456 25.644L205.384 25.6488L205.348 25.6504L205.133 25.6632L205.027 25.6712L204.921 25.6776L204.78 25.6889L204.705 25.6953L204.503 25.7113L204.485 25.7129L204.375 25.7225C204.253 25.7338 204.132 25.7466 204.011 25.7594L203.868 25.7771L203.832 25.7803L203.762 25.7899L203.708 25.7963L203.69 25.7979L203.674 25.7995L203.656 25.8028L203.639 25.8043L203.621 25.8059L203.509 25.822L203.283 25.8509L203.058 25.8846L202.931 25.9038L202.872 25.9134L202.86 25.915L202.802 25.9246L202.79 25.9263L202.771 25.9295H202.761L202.751 25.9327L202.712 25.9391H202.702L202.691 25.9407L202.661 25.9455L202.643 25.9551L202.516 25.976L202.506 25.9792L202.389 25.9984L202.379 26.0016L202.291 26.0161L202.183 26.0369L201.987 26.0754L201.95 26.0834L201.863 26.0995L201.83 26.1075L201.806 26.1123L201.755 26.1219L201.731 26.1284L201.706 26.1332L201.688 26.1364L201.672 26.1396L201.654 26.1428L201.646 26.146L201.572 26.1604L201.563 26.162L201.53 26.1684L201.522 26.1717L201.481 26.1797L201.44 26.1893L201.424 26.1925L201.399 26.1989L201.334 26.2118L201.169 26.2535L200.921 26.3144L200.751 26.3609L200.741 26.3625L200.617 26.3962L200.516 26.4251L200.416 26.454L200.395 26.4604L200.317 26.4828L200.14 26.5358L200.118 26.5438L200.02 26.5743L199.973 26.5887L199.922 26.6047L199.826 26.6368L199.718 26.6737L199.574 26.7234L199.525 26.7395L199.334 26.8069L199.267 26.8309L199.145 26.8758L199.05 26.9111L198.864 26.9817L198.771 27.0186L198.702 27.0458L198.679 27.0555L198.405 27.1678L198.314 27.2062L198.045 27.3249L197.994 27.3474L197.956 27.3634L197.868 27.4035L197.836 27.4196L197.78 27.4436L197.733 27.4677L197.605 27.527C197.551 27.5527 197.498 27.58 197.444 27.6056L197.427 27.6137L197.419 27.6185L197.411 27.6217L197.405 27.6265L197.396 27.6297L197.388 27.6345L197.38 27.6377L197.372 27.6425L197.364 27.6457L197.357 27.649L197.349 27.6538L197.333 27.6602L197.324 27.665L197.316 27.6682L197.308 27.673L197.302 27.6762L197.293 27.681L197.285 27.6842L197.253 27.7003L197.094 27.7821L196.928 27.8719L196.843 27.9184L196.782 27.9521L196.761 27.9633L196.435 28.1494L196.275 28.2456L196.159 28.3162L196.115 28.3435L195.958 28.4413L195.88 28.4927L195.803 28.5424L195.684 28.621L195.646 28.6466L195.571 28.6963L195.496 28.7493L195.346 28.8535L195.313 28.8776L195.272 28.9081L194.978 29.1246L194.962 29.1374L194.907 29.1791C194.818 29.2465 194.734 29.3139 194.649 29.3829L194.611 29.4133L194.588 29.4326L194.572 29.4454L194.567 29.4502L194.562 29.4534L194.552 29.463L194.54 29.4727L194.513 29.4952L194.502 29.5047L194.489 29.5145L194.449 29.5482L194.438 29.5577L194.412 29.5801L194.399 29.5896L194.36 29.6236L194.347 29.6331L194.335 29.6444L194.283 29.6891L194.27 29.699L194.259 29.7117L194.233 29.7326L194.206 29.7549L194.195 29.7662L194.156 29.7999L194.144 29.8112L194.105 29.8448L194.094 29.8561L194.055 29.8898L194.043 29.9008L194.03 29.9121L194.019 29.9249L193.979 29.9588L193.968 29.9698L193.942 29.9924L193.931 30.0052L193.916 30.0197L193.89 30.042L193.854 30.0774L193.841 30.0887L193.829 30.0997L193.816 30.1111L193.805 30.1238L193.792 30.1351L193.769 30.1575L193.756 30.1688L193.744 30.1815L193.614 30.3068L193.485 30.4335L193.295 30.6261L193.232 30.6916L193.046 30.8891L192.863 31.091L192.743 31.2258L192.566 31.4329L192.507 31.5033L192.409 31.6237L192.334 31.715L192.287 31.7759L192.221 31.8577L192.174 31.9186L192.166 31.9299L192.073 32.0503L192.027 32.1097L191.944 32.222L191.89 32.2956L191.73 32.5204L191.624 32.6712L191.469 32.902L191.418 32.9789L191.366 33.0577L191.315 33.1363L191.266 33.2132L191.215 33.2918L191.167 33.3721L191.111 33.4649L191.07 33.5325L191.021 33.6125L190.879 33.8579L190.833 33.9399C190.456 34.6087 190.115 35.2968 189.81 36.001C189.629 36.418 189.457 36.8463 189.296 37.2825L189.261 37.3756C188.977 38.1583 188.726 38.9714 188.507 39.8185L186.597 47.1984C186.065 49.1136 185.823 51.0946 185.879 53.0788C185.91 54.6714 186.398 56.2224 187.284 57.5569C188.256 58.8724 189.612 59.8682 191.173 60.4088C193.317 61.1466 195.581 61.4885 197.85 61.4177H225.411C226.229 61.4354 226.927 60.8389 227.023 60.0399Z" fill="#2B2A29"/>
<path d="M290.911 51.4329L292.057 47.0043H309.155L311.041 39.7221H293.941L295.1 35.2454L295.107 35.2213L295.108 35.2167L295.11 35.2118L295.115 35.1926L295.116 35.1845L295.12 35.1764L295.124 35.1622L295.134 35.1381L295.136 35.1314L295.139 35.1251L295.144 35.1109L295.151 35.0946L295.17 35.0514L295.188 35.0146L295.191 35.0114L295.194 35.0065L295.197 35.0001L295.202 34.9856L295.211 34.9711L295.217 34.9632L295.22 34.9551L295.223 34.9502L295.235 34.9342L295.238 34.9279L295.241 34.9197L295.256 34.8989L295.259 34.8925L295.267 34.8815L295.27 34.8783L295.273 34.8716L295.285 34.8574L295.297 34.8429L295.3 34.8365L295.306 34.8284L295.321 34.8093L295.326 34.8011L295.338 34.7884L295.344 34.7803L295.35 34.7739L295.356 34.7675L295.383 34.7402L295.391 34.7289L295.412 34.7112L295.427 34.7002L295.465 34.6744L295.48 34.6648L295.536 34.6344L295.545 34.6295L295.58 34.615L295.598 34.6086L295.639 34.5958L295.698 34.5813L295.71 34.5799L295.731 34.5749H295.74L295.775 34.5703L295.808 34.5654L295.855 34.5622H295.89L295.905 34.5604H319.698L314.781 27.9858L314.007 26.956L313.886 26.7956L312.992 25.6055H288.457L288.447 25.6071H288.437L288.418 25.6103H288.408L288.4 25.6119L288.39 25.6135H288.38L288.372 25.6151L288.353 25.6183H288.344L288.325 25.6215L288.317 25.6231L288.307 25.6247L288.299 25.6263L288.289 25.6279L288.281 25.6295L288.271 25.6311L288.263 25.6327L288.253 25.6344L288.237 25.6375L288.217 25.6424L288.201 25.6456L288.173 25.652L288.157 25.6552L288.147 25.6584L288.131 25.6616L288.122 25.6648L288.096 25.6712L288.083 25.6761L288.059 25.6825L288.021 25.6953C287.987 25.7065 287.954 25.7194 287.923 25.7322L287.899 25.7402L287.892 25.7434L287.887 25.7466L287.881 25.7482L287.874 25.7514L287.869 25.753L287.863 25.7546L287.858 25.7578L287.851 25.7611L287.845 25.7626L287.84 25.7659L287.833 25.7691L287.828 25.7707L287.822 25.7739L287.817 25.7771L287.811 25.7787L287.801 25.7851L287.794 25.7867L287.784 25.7931L287.778 25.7963L287.768 25.8028L287.762 25.8044L287.752 25.8108L287.745 25.814L287.735 25.8204L287.731 25.822L287.726 25.8252C287.701 25.8396 287.679 25.8541 287.656 25.8685L287.594 25.9102L287.536 25.9551L287.51 25.9776L287.507 25.9792L287.479 26.0033L287.425 26.053L287.373 26.1059L287.355 26.1268L287.349 26.1332L287.3 26.1909L287.278 26.2182L287.275 26.2214L287.252 26.2519L287.229 26.284L287.208 26.3144L287.166 26.3818L287.164 26.3866L287.159 26.3914V26.3946L287.156 26.3994L287.12 26.4203L287.118 26.4251L287.115 26.4299L287.112 26.4331V26.4363L287.107 26.4411V26.4444L287.104 26.4476V26.4508L287.101 26.454L287.099 26.4588L287.097 26.462L287.096 26.4652L287.091 26.4732L287.089 26.478L287.083 26.4909L287.079 26.4989L287.078 26.5021L287.073 26.5133L287.071 26.5181L287.068 26.5213V26.5246L287.066 26.5278L287.065 26.531L287.063 26.5342V26.5374L287.043 26.5743L287.027 26.6112L286.993 26.6898L286.976 26.7299L286.954 26.7908L286.945 26.8117L286.931 26.8534L286.916 26.8967L286.89 26.9833L286.887 26.9945L286.875 27.0282L286.87 27.0539L286.864 27.0747L282.185 45.1228L282.152 45.2478L278.348 59.9438C278.094 60.9287 278.456 61.4211 279.424 61.4211H306.377L317.959 52.1205L291.435 52.1211C290.968 52.1211 290.793 51.8885 290.911 51.4329Z" fill="#2B2A29"/>
<path d="M181.26 54.3443C181.227 53.6033 181.235 52.8592 181.286 52.118H157.219C156.75 52.118 156.576 51.8871 156.693 51.4301L157.841 47.0012H174.938L175.204 45.9795L176.824 39.7207H159.725L160.884 35.2426L160.907 35.1672L160.938 35.0836L160.944 35.0691L160.955 35.0468L160.959 35.0387L160.962 35.0323L160.965 35.0242L160.967 35.021L160.97 35.0178L160.973 35.01L160.985 34.9891L161.001 34.9601L161.004 34.9537L161.009 34.9456L161.032 34.9105L161.034 34.9073L161.037 34.9024L161.042 34.8943L161.05 34.8815L161.055 34.8751L161.06 34.867L161.065 34.8606L161.07 34.8528L161.08 34.8398L161.086 34.8319L161.096 34.8189L161.106 34.8047L161.112 34.7983L161.124 34.7838L161.129 34.7774L161.135 34.7693L161.14 34.7629L161.16 34.7435L161.171 34.7307L161.178 34.7261L161.197 34.7066L161.205 34.702L161.231 34.6826L161.241 34.6747L161.244 34.673L161.264 34.6602L161.269 34.6585L161.277 34.6539L161.285 34.6475L161.321 34.6298L161.331 34.6266L161.346 34.6202L161.354 34.6153L161.359 34.6136L161.367 34.6121L161.385 34.604L161.395 34.6008L161.398 34.5993L161.403 34.5976L161.413 34.5962L161.424 34.593L161.463 34.5831L161.473 34.5799L161.494 34.5767L161.501 34.5735L161.512 34.5721L161.548 34.5657H161.558L161.569 34.564L161.627 34.559H161.674L161.687 34.5576H185.902C186.064 34.211 186.234 33.8662 186.41 33.5229L186.441 33.4637C186.508 33.337 186.575 33.2102 186.644 33.0835L186.691 32.9968L186.724 32.9391L186.755 32.8814L186.771 32.8509L186.787 32.8237L186.804 32.7932L186.82 32.766L186.836 32.737L186.853 32.7065L186.869 32.6778L186.931 32.5702L186.975 32.4916L186.993 32.4612L187.055 32.3536L187.066 32.3327L187.184 32.1372L187.315 31.9221L187.447 31.7104L187.515 31.6031L187.582 31.4987L187.651 31.3928L187.721 31.287L187.78 31.1971L187.79 31.1829L187.861 31.0785L187.896 31.0271L187.932 30.9743L188.1 30.7319L188.149 30.6646L188.222 30.562L188.371 30.3584L188.446 30.2572L188.676 29.9541L188.854 29.7279L188.911 29.6557L188.991 29.558L189.151 29.3606L189.355 29.1216L189.398 29.0703L189.564 28.8794L189.798 28.6196L189.82 28.5939L189.993 28.4062L190.07 28.3244L190.103 28.2891L190.114 28.2779L190.124 28.2651L190.136 28.2539L190.157 28.2314L190.18 28.209L190.191 28.1961L190.202 28.1849L190.212 28.1737L190.224 28.1624L190.235 28.1496L190.258 28.1272L190.268 28.1159L190.302 28.0822L190.313 28.0694L190.323 28.0582L190.369 28.0133L190.379 28.002L190.459 27.9235L190.469 27.9122L190.709 27.6764C190.774 27.6123 190.839 27.5497 190.905 27.4872C190.978 27.4182 191.052 27.3492 191.125 27.2802L191.133 27.2738L191.148 27.261L191.161 27.2466L191.169 27.2401L191.176 27.2337L191.189 27.2225L191.215 27.1968L191.241 27.1744L191.267 27.1487L191.281 27.1375L191.295 27.1247L191.308 27.1134L191.321 27.1006L191.334 27.0894L191.36 27.0637L191.375 27.0525L191.401 27.0284L191.414 27.0172L191.427 27.0044L191.44 26.9931L191.455 26.9803L191.468 26.9691L191.481 26.9562L191.494 26.945L191.508 26.9322L191.521 26.921L191.536 26.9081L191.549 26.8969L191.562 26.884L191.577 26.8728L191.59 26.86L191.605 26.8488L191.618 26.8359L191.633 26.8247L191.646 26.8135L191.66 26.8006L191.673 26.7894L191.688 26.7766L191.701 26.7654L191.716 26.7525L191.729 26.7413L191.744 26.7285L191.757 26.7172L191.771 26.706L191.784 26.6932L191.799 26.6819L191.812 26.6707L191.827 26.6579L191.84 26.6467L191.855 26.6338L191.868 26.6226L191.882 26.6114L191.895 26.5985L191.91 26.5873L191.923 26.5761L191.938 26.5633L191.951 26.552L191.966 26.5408L192.021 26.4927L192.05 26.4702L192.088 26.4398L192.191 26.3531L192.22 26.3307L192.24 26.3146L192.255 26.3018L192.429 26.1639L192.477 26.1254L192.511 26.0997L192.668 25.9794L192.695 25.9586L192.702 25.9537L192.772 25.9008L192.788 25.888L192.859 25.8286L192.911 25.7901L192.939 25.7693L192.944 25.7645L193.174 25.5977H154.238L154.228 25.5993L154.22 25.6008H154.21L154.19 25.6041H154.181L154.171 25.6057H154.163L154.143 25.6089L154.135 25.6105L154.125 25.6121H154.115L154.094 25.6265L154.084 25.6281L154.076 25.6297L154.066 25.6313L154.058 25.6329L154.048 25.6345L154.04 25.6361L154.03 25.6378L154.022 25.6394L154.012 25.641L154.004 25.6426L153.986 25.6474L153.976 25.649L153.968 25.6506L153.941 25.657L153.924 25.6602L153.914 25.6634L153.898 25.6666L153.89 25.6698L153.864 25.6762L153.851 25.6811L153.826 25.6875L153.789 25.7003L153.753 25.7131L153.681 25.7404H153.678L153.655 25.7516H153.652L153.642 25.7565L153.627 25.7613L153.621 25.7645L153.617 25.7661L153.612 25.7677L153.609 25.7693L153.606 25.7709L153.59 25.7789H153.586L153.585 25.7821H153.581L153.572 25.7869L153.568 25.7901H153.565L153.562 25.7917L153.537 25.8046L153.529 25.8094L153.526 25.8126L153.516 25.8174L153.501 25.8254L153.493 25.8302L153.475 25.8415L153.412 25.8799L153.381 25.9008L153.359 25.9152L153.351 25.9217L153.292 25.9666L153.263 25.9906L153.235 26.0131L153.183 26.0644L153.155 26.0901L153.129 26.1157L153.08 26.1735L153.051 26.2088L153.031 26.2312L153.026 26.2393L153.009 26.2633L152.964 26.3259L152.941 26.3595L152.92 26.3932L152.918 26.3964L152.917 26.3997L152.915 26.4045L152.912 26.4077L152.911 26.4109L152.909 26.4141L152.905 26.4205L152.9 26.4285L152.873 26.4798L152.868 26.4879L152.863 26.4975L152.862 26.5023L152.858 26.5071L152.856 26.5103V26.5135L152.853 26.5183L152.852 26.5232L152.848 26.5296L152.847 26.5344L152.827 26.5713L152.809 26.6082L152.775 26.6868L152.758 26.7269L152.728 26.8087L152.711 26.852L152.702 26.8857L152.698 26.8937L152.697 26.9033L152.685 26.9386L152.675 26.9707L152.659 27.0268H152.649L152.638 27.0733L144.131 59.9407C143.874 60.9273 144.235 61.418 145.207 61.418H183.902C183.664 61.1468 183.442 60.8615 183.237 60.5662C181.997 58.7152 181.313 56.5596 181.26 54.3443Z" fill="#2B2A29"/>
</g>
<defs>
<clipPath id="clip0_757_6691">
<rect width="366" height="87" fill="white" transform="translate(0 0.5)"/>
</clipPath>
</defs>
</svg>
