<svg width="17" height="21" viewBox="0 0 17 21" fill="none" xmlns="http://www.w3.org/2000/svg">
<path d="M11.3992 15.1049L15.6382 21L17 19.9989L12.8269 14.1928C13.2661 13.822 13.6688 13.4068 14.0349 12.947C14.4009 12.4873 14.7084 11.9942 14.9574 11.4677C15.2063 10.9412 15.404 10.3888 15.5504 9.81038C15.6822 9.21716 15.7481 8.60911 15.7481 7.98623C15.7481 6.87394 15.5431 5.8358 15.1331 4.87182C14.7231 3.90784 14.163 3.06621 13.4528 2.34693C12.7427 1.62765 11.9044 1.05297 10.938 0.622881C9.98622 0.207626 8.96856 0 7.88501 0C6.80146 0 5.77649 0.207626 4.81008 0.622881C3.85831 1.05297 3.02735 1.62765 2.31718 2.34693C1.60702 3.06621 1.04694 3.90784 0.636951 4.87182C0.212317 5.8358 0 6.87394 0 7.98623C0 9.08369 0.212317 10.1144 0.636951 11.0784C1.04694 12.0424 1.60702 12.8877 2.31718 13.6144C3.02735 14.3411 3.85831 14.9121 4.81008 15.3273C5.77649 15.7426 6.80146 15.9502 7.88501 15.9502C8.51464 15.9502 9.12597 15.8761 9.71899 15.7278C10.312 15.5794 10.8721 15.3718 11.3992 15.1049ZM14.0568 7.98623C14.0568 8.8464 13.8958 9.65466 13.5736 10.411C13.2515 11.1822 12.8122 11.8496 12.2558 12.4131C11.6994 12.9767 11.0405 13.4216 10.2791 13.7479C9.5323 14.0742 8.73428 14.2373 7.88501 14.2373C7.0211 14.2373 6.21576 14.0742 5.46899 13.7479C4.72222 13.4216 4.06697 12.9767 3.50323 12.4131C2.93949 11.8496 2.49655 11.1822 2.17442 10.411C1.85228 9.65466 1.69121 8.8464 1.69121 7.98623C1.69121 7.11123 1.85228 6.29555 2.17442 5.5392C2.49655 4.78284 2.93949 4.11917 3.50323 3.5482C4.06697 2.97722 4.72222 2.5286 5.46899 2.20233C6.21576 1.87606 7.0211 1.71292 7.88501 1.71292C8.73428 1.71292 9.5323 1.87606 10.2791 2.20233C11.0405 2.5286 11.6994 2.97722 12.2558 3.5482C12.8122 4.11917 13.2515 4.78284 13.5736 5.5392C13.8958 6.29555 14.0568 7.11123 14.0568 7.98623Z" fill="#2B2A29"/>
</svg>
