<svg width="16" height="19" viewBox="0 0 16 19" fill="none" xmlns="http://www.w3.org/2000/svg">
<path d="M10.1895 13.2578L13.959 18.4336L15.1699 17.5547L11.459 12.457C11.8496 12.1315 12.2077 11.7669 12.5332 11.3633C12.8587 10.9596 13.1322 10.5267 13.3535 10.0645C13.5749 9.60221 13.7507 9.11719 13.8809 8.60938C13.998 8.08854 14.0566 7.55469 14.0566 7.00781C14.0566 6.03125 13.8743 5.11979 13.5098 4.27344C13.1452 3.42708 12.6471 2.68815 12.0156 2.05664C11.3841 1.42513 10.6387 0.920572 9.7793 0.542969C8.93294 0.178385 8.02799 -0.00390625 7.06445 -0.00390625C6.10091 -0.00390625 5.18945 0.178385 4.33008 0.542969C3.48372 0.920572 2.74479 1.42513 2.11328 2.05664C1.48177 2.68815 0.983724 3.42708 0.619141 4.27344C0.241536 5.11979 0.0527344 6.03125 0.0527344 7.00781C0.0527344 7.97135 0.241536 8.8763 0.619141 9.72266C0.983724 10.569 1.48177 11.3112 2.11328 11.9492C2.74479 12.5872 3.48372 13.0885 4.33008 13.4531C5.18945 13.8177 6.10091 14 7.06445 14C7.62435 14 8.16797 13.9349 8.69531 13.8047C9.22266 13.6745 9.7207 13.4922 10.1895 13.2578ZM12.5527 7.00781C12.5527 7.76302 12.4095 8.47266 12.123 9.13672C11.8366 9.8138 11.446 10.3997 10.9512 10.8945C10.4564 11.3893 9.87044 11.7799 9.19336 12.0664C8.5293 12.3529 7.81966 12.4961 7.06445 12.4961C6.29622 12.4961 5.58008 12.3529 4.91602 12.0664C4.25195 11.7799 3.66927 11.3893 3.16797 10.8945C2.66667 10.3997 2.27279 9.8138 1.98633 9.13672C1.69987 8.47266 1.55664 7.76302 1.55664 7.00781C1.55664 6.23958 1.69987 5.52344 1.98633 4.85938C2.27279 4.19531 2.66667 3.61263 3.16797 3.11133C3.66927 2.61003 4.25195 2.21615 4.91602 1.92969C5.58008 1.64323 6.29622 1.5 7.06445 1.5C7.81966 1.5 8.5293 1.64323 9.19336 1.92969C9.87044 2.21615 10.4564 2.61003 10.9512 3.11133C11.446 3.61263 11.8366 4.19531 12.123 4.85938C12.4095 5.52344 12.5527 6.23958 12.5527 7.00781Z" fill="#F7F7F5"/>
</svg>
