<svg width="10" height="15" viewBox="0 0 10 15" fill="none" xmlns="http://www.w3.org/2000/svg">
<path d="M4.58203 0C2.10352 0 0.0820312 2.05078 0.0820312 4.56522C0.0820312 6.85802 1.76451 8.75085 3.93917 9.06929V15H5.22489V9.06929C7.39955 8.75085 9.08203 6.85802 9.08203 4.56522C9.08203 2.05078 7.06055 0 4.58203 0ZM4.58203 1.30435C6.36496 1.30435 7.79632 2.75645 7.79632 4.56522C7.79632 6.37398 6.36496 7.82609 4.58203 7.82609C2.79911 7.82609 1.36775 6.37398 1.36775 4.56522C1.36775 2.75645 2.79911 1.30435 4.58203 1.30435ZM4.58203 1.95652C3.16825 1.95652 2.0106 3.13094 2.0106 4.56522H3.29632C3.29632 3.83662 3.86384 3.26087 4.58203 3.26087V1.95652Z" fill="#2B2A29"/>
</svg>
